M48
;Layer_Color=9474304
;FILE_FORMAT=2:5
INCH,LZ
;TYPE=PLATED
T1F00S00C0.02800
T2F00S00C0.03346
T4F00S00C0.04000
T5F00S00C0.04016
T6F00S00C0.05512
T8F00S00C0.12598
%
T01
X03645Y0202
X0398Y02125
X0382Y0229
X0351Y02395
X03965Y02755
X03985Y0284
X0413
X0419Y02755
X04215Y03085
X03975
X0284Y02695
X027
X02885Y02545
Y02425
X02855Y03265
X0275Y0337
X0373Y03465
X039Y03635
T02
X03445Y0280363
X03545Y0300363
X03345
T04
X042476Y0244142
X0428587Y0253381
X0432413Y0262619
X043624Y0271858
X025276Y0315142
X0256587Y0324381
X0260413Y0333619
X026424Y0342858
T05
X0276Y02845
Y02945
Y03045
X03085Y03375
Y03475
Y03575
T06
X0329736Y033287
X03445
X0359264
T08
X0378941Y0210351
X0261351Y0259058
X0310058Y0376649
X0427649Y0327941
M30
