G04 Layer_Physical_Order=3*
G04 Layer_Color=16711680*
%FSLAX25Y25*%
%MOIN*%
G70*
G01*
G75*
%ADD10C,0.03000*%
%ADD20C,0.02500*%
%ADD21C,0.08000*%
%ADD22R,0.08000X0.08000*%
G04:AMPARAMS|DCode=23|XSize=210mil|YSize=110mil|CornerRadius=0mil|HoleSize=0mil|Usage=FLASHONLY|Rotation=157.500|XOffset=0mil|YOffset=0mil|HoleType=Round|Shape=Round|*
%AMOVALD23*
21,1,0.10000,0.11000,0.00000,0.00000,157.5*
1,1,0.11000,0.04619,-0.01913*
1,1,0.11000,-0.04619,0.01913*
%
%ADD23OVALD23*%

G04:AMPARAMS|DCode=24|XSize=210mil|YSize=110mil|CornerRadius=0mil|HoleSize=0mil|Usage=FLASHONLY|Rotation=67.500|XOffset=0mil|YOffset=0mil|HoleType=Round|Shape=Round|*
%AMOVALD24*
21,1,0.10000,0.11000,0.00000,0.00000,67.5*
1,1,0.11000,-0.01913,-0.04619*
1,1,0.11000,0.01913,0.04619*
%
%ADD24OVALD24*%

G04:AMPARAMS|DCode=25|XSize=80mil|YSize=100mil|CornerRadius=0mil|HoleSize=0mil|Usage=FLASHONLY|Rotation=67.500|XOffset=0mil|YOffset=0mil|HoleType=Round|Shape=Round|*
%AMOVALD25*
21,1,0.02000,0.08000,0.00000,0.00000,157.5*
1,1,0.08000,0.00924,-0.00383*
1,1,0.08000,-0.00924,0.00383*
%
%ADD25OVALD25*%

G04:AMPARAMS|DCode=26|XSize=80mil|YSize=100mil|CornerRadius=2.4mil|HoleSize=0mil|Usage=FLASHONLY|Rotation=67.500|XOffset=0mil|YOffset=0mil|HoleType=Round|Shape=RoundedRectangle|*
%AMROUNDEDRECTD26*
21,1,0.08000,0.09520,0,0,67.5*
21,1,0.07520,0.10000,0,0,67.5*
1,1,0.00480,0.05837,0.01652*
1,1,0.00480,0.02959,-0.05295*
1,1,0.00480,-0.05837,-0.01652*
1,1,0.00480,-0.02959,0.05295*
%
%ADD26ROUNDEDRECTD26*%
%ADD27R,0.11000X0.11000*%
%ADD28C,0.11000*%
%ADD29R,0.11000X0.15000*%
%ADD30C,0.07000*%
%ADD31R,0.07000X0.07000*%
%ADD32C,0.12598*%
%ADD33C,0.05000*%
G36*
X350751Y404818D02*
X356983Y404293D01*
X363176Y403419D01*
X369310Y402199D01*
X375365Y400636D01*
X381324Y398737D01*
X387167Y396507D01*
X392875Y393952D01*
X398432Y391082D01*
X403818Y387905D01*
X409018Y384430D01*
X414015Y380669D01*
X418793Y376635D01*
X423338Y372338D01*
X427634Y367794D01*
X431669Y363015D01*
X435430Y358018D01*
X438905Y352818D01*
X442082Y347432D01*
X444952Y341875D01*
X447507Y336167D01*
X449737Y330324D01*
X451636Y324365D01*
X453198Y318310D01*
X454419Y312176D01*
X455293Y305983D01*
X455819Y299751D01*
X455994Y293500D01*
X455819Y287248D01*
X455293Y281017D01*
X454419Y274824D01*
X453198Y268690D01*
X451636Y262634D01*
X449737Y256676D01*
X447507Y250833D01*
X444952Y245125D01*
X442082Y239568D01*
X438905Y234182D01*
X435430Y228982D01*
X431669Y223985D01*
X427634Y219206D01*
X423338Y214662D01*
X418793Y210366D01*
X414015Y206331D01*
X409018Y202570D01*
X403818Y199095D01*
X398432Y195918D01*
X392875Y193047D01*
X387167Y190493D01*
X381324Y188263D01*
X375365Y186364D01*
X369310Y184801D01*
X363176Y183581D01*
X356983Y182707D01*
X350751Y182182D01*
X344500Y182006D01*
X338248Y182182D01*
X332017Y182707D01*
X325824Y183581D01*
X319690Y184801D01*
X313634Y186364D01*
X307676Y188263D01*
X301833Y190493D01*
X296125Y193047D01*
X290568Y195918D01*
X285182Y199095D01*
X279982Y202570D01*
X274985Y206331D01*
X270206Y210366D01*
X265662Y214662D01*
X261366Y219206D01*
X257331Y223985D01*
X253570Y228982D01*
X250095Y234182D01*
X246918Y239568D01*
X244047Y245125D01*
X241493Y250833D01*
X239263Y256676D01*
X237364Y262634D01*
X235802Y268690D01*
X234581Y274824D01*
X233707Y281017D01*
X233182Y287248D01*
X233006Y293500D01*
X233182Y299751D01*
X233707Y305983D01*
X234581Y312176D01*
X235802Y318310D01*
X237364Y324365D01*
X239263Y330324D01*
X241493Y336167D01*
X244047Y341875D01*
X246918Y347432D01*
X250095Y352818D01*
X253570Y358018D01*
X257331Y363015D01*
X261366Y367794D01*
X265662Y372338D01*
X270206Y376635D01*
X274985Y380669D01*
X279982Y384430D01*
X285182Y387905D01*
X290568Y391082D01*
X296125Y393952D01*
X301833Y396507D01*
X307676Y398737D01*
X313634Y400636D01*
X319690Y402199D01*
X325824Y403419D01*
X332017Y404293D01*
X338248Y404818D01*
X344500Y404994D01*
X350751Y404818D01*
D02*
G37*
%LPC*%
G36*
X435975Y277241D02*
X434658D01*
X433386Y276900D01*
X432246Y276242D01*
X431315Y275311D01*
X430657Y274171D01*
X430316Y272899D01*
Y271583D01*
X430657Y270311D01*
X431315Y269171D01*
X432246Y268240D01*
X433386Y267582D01*
X435234Y266816D01*
X436506Y266476D01*
X437822D01*
X439094Y266816D01*
X440234Y267475D01*
X441165Y268405D01*
X441823Y269546D01*
X442164Y270817D01*
Y272134D01*
X441823Y273405D01*
X441165Y274546D01*
X440234Y275477D01*
X439094Y276135D01*
X437246Y276900D01*
X435975Y277241D01*
D02*
G37*
G36*
X344500Y284901D02*
X343325Y284747D01*
X342231Y284293D01*
X341291Y283572D01*
X340569Y282632D01*
X340116Y281537D01*
X339961Y280363D01*
X340116Y279188D01*
X340569Y278093D01*
X341291Y277153D01*
X342231Y276432D01*
X343325Y275978D01*
X344500Y275824D01*
X345675Y275978D01*
X346769Y276432D01*
X347709Y277153D01*
X348431Y278093D01*
X348884Y279188D01*
X349039Y280363D01*
X348884Y281537D01*
X348431Y282632D01*
X347709Y283572D01*
X346769Y284293D01*
X345675Y284747D01*
X344500Y284901D01*
D02*
G37*
G36*
X419000Y279030D02*
X418086Y278910D01*
X417235Y278557D01*
X416573Y278049D01*
X398927D01*
X398265Y278557D01*
X397414Y278910D01*
X396500Y279030D01*
X395586Y278910D01*
X394735Y278557D01*
X394004Y277996D01*
X393443Y277265D01*
X393090Y276414D01*
X392970Y275500D01*
X393090Y274586D01*
X393443Y273735D01*
X394004Y273004D01*
X394735Y272443D01*
X395586Y272090D01*
X396500Y271970D01*
X397414Y272090D01*
X398265Y272443D01*
X398927Y272951D01*
X416573D01*
X417235Y272443D01*
X418086Y272090D01*
X419000Y271970D01*
X419914Y272090D01*
X420765Y272443D01*
X421496Y273004D01*
X422057Y273735D01*
X422410Y274586D01*
X422530Y275500D01*
X422410Y276414D01*
X422057Y277265D01*
X421496Y277996D01*
X420765Y278557D01*
X419914Y278910D01*
X419000Y279030D01*
D02*
G37*
G36*
X351000Y243030D02*
X350086Y242910D01*
X349235Y242557D01*
X348504Y241996D01*
X347943Y241265D01*
X347590Y240414D01*
X347470Y239500D01*
X347590Y238586D01*
X347943Y237735D01*
X348504Y237004D01*
X349235Y236443D01*
X349419Y236367D01*
X361289Y203394D01*
X361090Y202914D01*
X360970Y202000D01*
X361090Y201086D01*
X361443Y200235D01*
X362004Y199504D01*
X362735Y198943D01*
X363586Y198590D01*
X364500Y198470D01*
X365414Y198590D01*
X366265Y198943D01*
X366996Y199504D01*
X367557Y200235D01*
X367910Y201086D01*
X368030Y202000D01*
X367910Y202914D01*
X367557Y203765D01*
X366996Y204496D01*
X366265Y205057D01*
X366081Y205134D01*
X354211Y238106D01*
X354410Y238586D01*
X354530Y239500D01*
X354410Y240414D01*
X354057Y241265D01*
X353496Y241996D01*
X352765Y242557D01*
X351914Y242910D01*
X351000Y243030D01*
D02*
G37*
G36*
X317881Y251945D02*
X316606Y251819D01*
X315381Y251448D01*
X314252Y250844D01*
X313262Y250032D01*
X312450Y249042D01*
X311846Y247913D01*
X311475Y246688D01*
X311349Y245413D01*
X311475Y244139D01*
X311846Y242914D01*
X312450Y241785D01*
X313262Y240795D01*
X314252Y239983D01*
X315381Y239379D01*
X324620Y235552D01*
X325845Y235181D01*
X327119Y235055D01*
X328394Y235181D01*
X329619Y235552D01*
X330748Y236156D01*
X331738Y236968D01*
X332550Y237958D01*
X333154Y239087D01*
X333525Y240312D01*
X333651Y241587D01*
X333525Y242861D01*
X333154Y244086D01*
X332550Y245215D01*
X331738Y246205D01*
X330748Y247017D01*
X329619Y247621D01*
X320380Y251448D01*
X319155Y251819D01*
X317881Y251945D01*
D02*
G37*
G36*
X428321Y258763D02*
X427004D01*
X425733Y258422D01*
X424593Y257764D01*
X423662Y256833D01*
X423003Y255693D01*
X422663Y254421D01*
Y253105D01*
X423003Y251833D01*
X423340Y251251D01*
X422644Y250457D01*
X422285Y250605D01*
X421801Y250701D01*
X421317Y250605D01*
X420907Y250331D01*
X420633Y249921D01*
X417755Y242973D01*
X417659Y242490D01*
X417755Y242006D01*
X418029Y241596D01*
X418439Y241321D01*
X427235Y237678D01*
X427718Y237582D01*
X428202Y237678D01*
X428613Y237952D01*
X428887Y238363D01*
X431764Y245310D01*
X431861Y245794D01*
X431764Y246278D01*
X431490Y246688D01*
X431080Y246962D01*
X430721Y247111D01*
X430790Y248165D01*
X431440Y248339D01*
X432581Y248997D01*
X433511Y249928D01*
X434170Y251068D01*
X434511Y252340D01*
Y253656D01*
X434170Y254928D01*
X433511Y256068D01*
X432581Y256999D01*
X431440Y257657D01*
X429593Y258422D01*
X428321Y258763D01*
D02*
G37*
G36*
X329346Y302000D02*
X316347D01*
Y285000D01*
X329346D01*
Y302000D01*
D02*
G37*
G36*
X365764Y339370D02*
X352764D01*
Y326370D01*
X365764D01*
Y339370D01*
D02*
G37*
G36*
X308500Y362543D02*
X307195Y362371D01*
X305978Y361867D01*
X304934Y361066D01*
X304133Y360022D01*
X303629Y358805D01*
X303457Y357500D01*
X303629Y356195D01*
X304133Y354978D01*
X304934Y353934D01*
X305978Y353133D01*
X306199Y353041D01*
Y351959D01*
X305978Y351868D01*
X304934Y351066D01*
X304133Y350022D01*
X303629Y348805D01*
X303457Y347500D01*
X303629Y346195D01*
X304133Y344978D01*
X304934Y343934D01*
X305500Y343500D01*
X305160Y342500D01*
X303500D01*
Y332500D01*
X313500D01*
Y342500D01*
X311840D01*
X311501Y343500D01*
X312066Y343934D01*
X312867Y344978D01*
X313371Y346195D01*
X313543Y347500D01*
X313371Y348805D01*
X312867Y350022D01*
X312066Y351066D01*
X311022Y351868D01*
X310801Y351959D01*
Y353041D01*
X311022Y353133D01*
X312066Y353934D01*
X312867Y354978D01*
X313371Y356195D01*
X313543Y357500D01*
X313371Y358805D01*
X312867Y360022D01*
X312066Y361066D01*
X311022Y361867D01*
X309805Y362371D01*
X308500Y362543D01*
D02*
G37*
G36*
X261281Y349418D02*
X260798Y349322D01*
X260387Y349047D01*
X260113Y348637D01*
X257236Y341690D01*
X257139Y341206D01*
X257236Y340722D01*
X257510Y340312D01*
X257920Y340038D01*
X266715Y336395D01*
X267199Y336298D01*
X267683Y336395D01*
X268093Y336669D01*
X268367Y337079D01*
X271245Y344027D01*
X271341Y344510D01*
X271245Y344994D01*
X270971Y345404D01*
X270561Y345678D01*
X261765Y349322D01*
X261281Y349418D01*
D02*
G37*
G36*
X344500Y339402D02*
X343226Y339276D01*
X342001Y338904D01*
X340871Y338301D01*
X339882Y337489D01*
X339069Y336499D01*
X338466Y335370D01*
X338094Y334144D01*
X337969Y332870D01*
X338094Y331596D01*
X338466Y330371D01*
X339069Y329241D01*
X339882Y328252D01*
X340871Y327439D01*
X342001Y326836D01*
X343226Y326464D01*
X344500Y326339D01*
X345774Y326464D01*
X347000Y326836D01*
X348129Y327439D01*
X349118Y328252D01*
X349931Y329241D01*
X350534Y330371D01*
X350906Y331596D01*
X351031Y332870D01*
X350906Y334144D01*
X350534Y335370D01*
X349931Y336499D01*
X349118Y337489D01*
X348129Y338301D01*
X347000Y338904D01*
X345774Y339276D01*
X344500Y339402D01*
D02*
G37*
G36*
X354500Y304901D02*
X353325Y304747D01*
X352231Y304293D01*
X351291Y303572D01*
X350569Y302632D01*
X350116Y301537D01*
X349961Y300363D01*
X350116Y299188D01*
X350569Y298093D01*
X351291Y297153D01*
X352231Y296432D01*
X353325Y295978D01*
X354500Y295824D01*
X355675Y295978D01*
X356769Y296432D01*
X357709Y297153D01*
X358431Y298093D01*
X358653Y298631D01*
X359653Y298432D01*
Y285000D01*
X372654D01*
Y302000D01*
X359775D01*
X359653Y302000D01*
X358673Y302047D01*
X358431Y302632D01*
X357709Y303572D01*
X356769Y304293D01*
X355675Y304747D01*
X354500Y304901D01*
D02*
G37*
G36*
X281000Y309500D02*
X271000D01*
Y299500D01*
X272660D01*
X273000Y298500D01*
X272434Y298066D01*
X271633Y297022D01*
X271129Y295805D01*
X270957Y294500D01*
X271129Y293195D01*
X271633Y291978D01*
X272434Y290934D01*
X273478Y290132D01*
X274695Y289629D01*
X276000Y289457D01*
X277305Y289629D01*
X278522Y290132D01*
X279566Y290934D01*
X280367Y291978D01*
X280871Y293195D01*
X281043Y294500D01*
X280871Y295805D01*
X280367Y297022D01*
X279566Y298066D01*
X279000Y298500D01*
X279340Y299500D01*
X281000D01*
Y309500D01*
D02*
G37*
G36*
X256321Y329763D02*
X255004D01*
X253733Y329422D01*
X252593Y328764D01*
X251662Y327833D01*
X251004Y326693D01*
X250663Y325422D01*
Y324105D01*
X251003Y322833D01*
X251662Y321693D01*
X251830Y321525D01*
X251416Y320525D01*
X251178D01*
X249906Y320184D01*
X248766Y319526D01*
X247835Y318595D01*
X247177Y317454D01*
X246836Y316183D01*
Y314866D01*
X247177Y313595D01*
X247835Y312454D01*
X248766Y311524D01*
X249906Y310865D01*
X251754Y310100D01*
X253025Y309759D01*
X254342D01*
X255614Y310100D01*
X256754Y310758D01*
X257685Y311689D01*
X258343Y312829D01*
X258684Y314101D01*
Y315417D01*
X258343Y316689D01*
X257685Y317829D01*
X257516Y317998D01*
X257930Y318998D01*
X258169D01*
X259440Y319339D01*
X260580Y319997D01*
X261511Y320928D01*
X262170Y322068D01*
X262510Y323340D01*
Y324656D01*
X262170Y325928D01*
X261511Y327068D01*
X260580Y327999D01*
X259440Y328657D01*
X257593Y329422D01*
X256321Y329763D01*
D02*
G37*
%LPD*%
D10*
X351000Y239500D02*
X364500Y202000D01*
X396500Y275500D02*
X419000D01*
D20*
X373000Y346500D02*
X390000Y363500D01*
X397500Y308500D02*
X421500D01*
X270000Y269500D02*
X284000D01*
X275000Y337000D02*
X285500Y326500D01*
X398500Y284000D02*
X413000D01*
X382000Y228500D02*
X398000Y212500D01*
X382000Y228500D02*
Y229000D01*
X288500Y242500D02*
Y254500D01*
D21*
X308500Y357500D02*
D03*
Y347500D02*
D03*
X276000Y284500D02*
D03*
Y294500D02*
D03*
D22*
X308500Y337500D02*
D03*
X276000Y304500D02*
D03*
D23*
X313460Y221676D02*
D03*
X322500Y243500D02*
D03*
D24*
X335075Y225507D02*
D03*
D25*
X436240Y271858D02*
D03*
X432413Y262619D02*
D03*
X428587Y253381D02*
D03*
X252760Y315142D02*
D03*
X256587Y324381D02*
D03*
X260413Y333619D02*
D03*
D26*
X424760Y244142D02*
D03*
X264240Y342858D02*
D03*
D27*
X359264Y332870D02*
D03*
D28*
X344500D02*
D03*
X329736D02*
D03*
D29*
X366154Y293500D02*
D03*
X322847D02*
D03*
D30*
X354500Y300363D02*
D03*
X344500Y280363D02*
D03*
D31*
X334500Y300363D02*
D03*
D32*
X310058Y376649D02*
D03*
X427649Y327941D02*
D03*
X261351Y259058D02*
D03*
X378941Y210351D02*
D03*
D33*
X288500Y254500D02*
D03*
Y242500D02*
D03*
X396500Y275500D02*
D03*
X351000Y239500D02*
D03*
X364500Y202000D02*
D03*
X382000Y229000D02*
D03*
X398000Y212500D02*
D03*
X398500Y284000D02*
D03*
X413000D02*
D03*
X285500Y326500D02*
D03*
X275000Y337000D02*
D03*
X284000Y269500D02*
D03*
X270000D02*
D03*
X421500Y308500D02*
D03*
X397500D02*
D03*
X390000Y363500D02*
D03*
X373000Y346500D02*
D03*
X419000Y275500D02*
D03*
M02*
