G04 Layer_Color=16711935*
%FSLAX25Y25*%
%MOIN*%
G70*
G01*
G75*
%ADD36C,0.00700*%
%ADD69C,0.00394*%
%ADD70C,0.00500*%
%ADD71C,0.00400*%
%ADD72C,0.00600*%
%ADD73C,0.00591*%
%ADD74C,0.00300*%
G36*
X268013Y228672D02*
X266777Y227436D01*
X266774Y227433D01*
X266764Y227424D01*
X266749Y227408D01*
X266730Y227390D01*
X266712Y227365D01*
X266684Y227337D01*
X266628Y227275D01*
X266567Y227201D01*
X266508Y227124D01*
X266455Y227047D01*
X266434Y227013D01*
X266415Y226976D01*
X266412Y226966D01*
X266403Y226945D01*
X266397Y226908D01*
X266384Y226858D01*
X266375Y226806D01*
X266372Y226741D01*
X266375Y226670D01*
X266390Y226599D01*
X266393Y226589D01*
X266400Y226565D01*
X266418Y226528D01*
X266443Y226478D01*
X266471Y226419D01*
X266517Y226355D01*
X266567Y226287D01*
X266628Y226219D01*
X266631Y226216D01*
X266641Y226206D01*
X266659Y226188D01*
X266681Y226172D01*
X266709Y226144D01*
X266740Y226120D01*
X266820Y226064D01*
X266910Y226005D01*
X267005Y225959D01*
X267107Y225925D01*
X267160Y225916D01*
X267212Y225913D01*
X267225D01*
X267240Y225916D01*
X267262Y225919D01*
X267290Y225928D01*
X267320Y225934D01*
X267361Y225950D01*
X267401Y225965D01*
X267447Y225987D01*
X267497Y226018D01*
X267555Y226052D01*
X267614Y226092D01*
X267679Y226138D01*
X267744Y226191D01*
X267818Y226253D01*
X267889Y226324D01*
X269125Y227560D01*
X269409Y227275D01*
X268173Y226039D01*
X268170Y226036D01*
X268158Y226024D01*
X268143Y226008D01*
X268121Y225987D01*
X268090Y225962D01*
X268059Y225931D01*
X268019Y225897D01*
X267979Y225863D01*
X267886Y225789D01*
X267787Y225715D01*
X267685Y225650D01*
X267633Y225622D01*
X267583Y225597D01*
X267580Y225594D01*
X267571Y225591D01*
X267555Y225588D01*
X267537Y225582D01*
X267484Y225567D01*
X267413Y225551D01*
X267327Y225539D01*
X267234Y225533D01*
X267126Y225536D01*
X267011Y225557D01*
X267008Y225560D01*
X266996D01*
X266984Y225567D01*
X266959Y225573D01*
X266931Y225582D01*
X266897Y225597D01*
X266863Y225613D01*
X266820Y225631D01*
X266774Y225653D01*
X266727Y225681D01*
X266678Y225712D01*
X266622Y225749D01*
X266570Y225789D01*
X266514Y225832D01*
X266397Y225937D01*
X266393Y225940D01*
X266384Y225950D01*
X266369Y225965D01*
X266350Y225990D01*
X266325Y226015D01*
X266298Y226049D01*
X266267Y226086D01*
X266236Y226123D01*
X266171Y226212D01*
X266106Y226314D01*
X266051Y226419D01*
X266007Y226531D01*
X266004Y226534D01*
Y226546D01*
X266001Y226561D01*
X265995Y226580D01*
X265986Y226639D01*
X265979Y226713D01*
X265976Y226803D01*
X265983Y226895D01*
X266001Y227000D01*
X266035Y227102D01*
X266038Y227105D01*
X266041Y227115D01*
X266051Y227130D01*
X266060Y227152D01*
X266072Y227176D01*
X266091Y227207D01*
X266109Y227244D01*
X266137Y227285D01*
X266168Y227328D01*
X266199Y227377D01*
X266236Y227427D01*
X266276Y227479D01*
X266322Y227538D01*
X266375Y227597D01*
X266431Y227659D01*
X266492Y227720D01*
X267728Y228956D01*
X268013Y228672D01*
D02*
G37*
G36*
X271149Y225480D02*
X270942Y225273D01*
X270899D01*
X270868Y225267D01*
X270828Y225264D01*
X270778D01*
X270723Y225257D01*
X270658Y225248D01*
X270593Y225239D01*
X270516Y225230D01*
X270432Y225214D01*
X270349Y225199D01*
X270256Y225180D01*
X270160Y225159D01*
X270058Y225131D01*
X269956Y225103D01*
X269950D01*
X269932Y225097D01*
X269904Y225088D01*
X269861Y225075D01*
X269811Y225057D01*
X269756Y225038D01*
X269691Y225016D01*
X269619Y224989D01*
X269539Y224958D01*
X269456Y224930D01*
X269369Y224893D01*
X269280Y224853D01*
X269097Y224769D01*
X268909Y224674D01*
X268906Y224670D01*
X268893Y224664D01*
X268875Y224652D01*
X268850Y224640D01*
X268819Y224621D01*
X268782Y224596D01*
X268739Y224571D01*
X268696Y224541D01*
X268643Y224507D01*
X268587Y224470D01*
X268473Y224386D01*
X268350Y224293D01*
X268223Y224185D01*
X267954Y224454D01*
X267957Y224457D01*
X267966Y224466D01*
X267979Y224479D01*
X268000Y224494D01*
X268025Y224519D01*
X268059Y224547D01*
X268096Y224578D01*
X268136Y224612D01*
X268186Y224649D01*
X268235Y224686D01*
X268297Y224729D01*
X268359Y224772D01*
X268424Y224819D01*
X268498Y224868D01*
X268655Y224964D01*
X268658Y224967D01*
X268674Y224976D01*
X268699Y224989D01*
X268736Y225007D01*
X268776Y225029D01*
X268825Y225054D01*
X268881Y225084D01*
X268946Y225112D01*
X269017Y225146D01*
X269088Y225180D01*
X269252Y225251D01*
X269431Y225319D01*
X269616Y225381D01*
X269623D01*
X269641Y225387D01*
X269666Y225394D01*
X269703Y225406D01*
X269746Y225418D01*
X269802Y225431D01*
X269861Y225446D01*
X269925Y225462D01*
X270074Y225492D01*
X270228Y225523D01*
X270395Y225548D01*
X270559Y225564D01*
X269511Y226611D01*
X269765Y226864D01*
X271149Y225480D01*
D02*
G37*
G36*
X339525Y193033D02*
X339555D01*
X339590Y193028D01*
X339673Y193011D01*
X339765Y192989D01*
X339861Y192954D01*
X339957Y192902D01*
X340005Y192871D01*
X340049Y192836D01*
X340054Y192832D01*
X340058Y192827D01*
X340071Y192814D01*
X340084Y192801D01*
X340106Y192779D01*
X340124Y192753D01*
X340172Y192692D01*
X340220Y192613D01*
X340263Y192517D01*
X340303Y192408D01*
X340329Y192286D01*
X339957Y192255D01*
Y192259D01*
X339953Y192264D01*
X339949Y192290D01*
X339936Y192329D01*
X339918Y192377D01*
X339901Y192430D01*
X339874Y192482D01*
X339844Y192530D01*
X339813Y192570D01*
X339804Y192578D01*
X339787Y192596D01*
X339756Y192622D01*
X339713Y192653D01*
X339656Y192679D01*
X339595Y192705D01*
X339520Y192722D01*
X339442Y192731D01*
X339411D01*
X339376Y192727D01*
X339337Y192718D01*
X339284Y192705D01*
X339232Y192688D01*
X339179Y192666D01*
X339127Y192631D01*
X339118Y192626D01*
X339096Y192609D01*
X339066Y192578D01*
X339027Y192535D01*
X338983Y192482D01*
X338935Y192421D01*
X338891Y192342D01*
X338847Y192255D01*
Y192251D01*
X338843Y192242D01*
X338839Y192229D01*
X338830Y192211D01*
X338826Y192185D01*
X338817Y192154D01*
X338808Y192120D01*
X338799Y192076D01*
X338786Y192028D01*
X338777Y191975D01*
X338769Y191918D01*
X338764Y191857D01*
X338756Y191787D01*
X338751Y191717D01*
X338747Y191639D01*
Y191560D01*
X338751Y191565D01*
X338769Y191591D01*
X338799Y191626D01*
X338839Y191669D01*
X338882Y191722D01*
X338939Y191770D01*
X339000Y191818D01*
X339070Y191862D01*
X339075D01*
X339079Y191866D01*
X339105Y191879D01*
X339145Y191892D01*
X339197Y191914D01*
X339258Y191931D01*
X339328Y191945D01*
X339402Y191958D01*
X339481Y191962D01*
X339516D01*
X339542Y191958D01*
X339577Y191953D01*
X339612Y191949D01*
X339656Y191940D01*
X339700Y191927D01*
X339800Y191897D01*
X339852Y191875D01*
X339905Y191844D01*
X339957Y191814D01*
X340014Y191779D01*
X340067Y191735D01*
X340115Y191687D01*
X340119Y191682D01*
X340128Y191674D01*
X340141Y191661D01*
X340154Y191639D01*
X340176Y191608D01*
X340198Y191578D01*
X340220Y191538D01*
X340246Y191495D01*
X340272Y191446D01*
X340294Y191394D01*
X340316Y191333D01*
X340338Y191272D01*
X340351Y191206D01*
X340364Y191132D01*
X340373Y191058D01*
X340377Y190979D01*
Y190974D01*
Y190966D01*
Y190953D01*
Y190931D01*
X340373Y190905D01*
Y190878D01*
X340359Y190808D01*
X340346Y190725D01*
X340324Y190638D01*
X340294Y190542D01*
X340250Y190450D01*
Y190446D01*
X340246Y190441D01*
X340237Y190428D01*
X340228Y190411D01*
X340202Y190367D01*
X340163Y190310D01*
X340115Y190249D01*
X340058Y190188D01*
X339988Y190127D01*
X339914Y190074D01*
X339909D01*
X339905Y190070D01*
X339892Y190061D01*
X339874Y190057D01*
X339831Y190035D01*
X339774Y190013D01*
X339700Y189987D01*
X339616Y189969D01*
X339525Y189952D01*
X339424Y189948D01*
X339402D01*
X339381Y189952D01*
X339346D01*
X339306Y189956D01*
X339263Y189965D01*
X339210Y189978D01*
X339158Y189991D01*
X339096Y190009D01*
X339035Y190031D01*
X338974Y190057D01*
X338909Y190092D01*
X338847Y190131D01*
X338786Y190175D01*
X338725Y190227D01*
X338668Y190288D01*
X338664Y190293D01*
X338655Y190306D01*
X338642Y190323D01*
X338625Y190354D01*
X338598Y190393D01*
X338577Y190437D01*
X338550Y190494D01*
X338524Y190555D01*
X338493Y190629D01*
X338467Y190712D01*
X338445Y190804D01*
X338423Y190905D01*
X338402Y191018D01*
X338389Y191141D01*
X338380Y191272D01*
X338375Y191411D01*
Y191416D01*
Y191420D01*
Y191433D01*
Y191451D01*
X338380Y191495D01*
Y191556D01*
X338384Y191626D01*
X338393Y191709D01*
X338402Y191800D01*
X338415Y191901D01*
X338432Y192001D01*
X338454Y192111D01*
X338480Y192216D01*
X338511Y192321D01*
X338550Y192421D01*
X338594Y192517D01*
X338642Y192609D01*
X338699Y192688D01*
X338703Y192692D01*
X338712Y192701D01*
X338729Y192718D01*
X338751Y192744D01*
X338777Y192771D01*
X338812Y192797D01*
X338856Y192832D01*
X338900Y192862D01*
X338952Y192893D01*
X339009Y192928D01*
X339075Y192954D01*
X339140Y192985D01*
X339214Y193007D01*
X339293Y193024D01*
X339376Y193033D01*
X339464Y193037D01*
X339498D01*
X339525Y193033D01*
D02*
G37*
G36*
X337877Y191276D02*
Y191272D01*
Y191254D01*
Y191232D01*
Y191202D01*
X337873Y191162D01*
Y191119D01*
X337868Y191066D01*
X337864Y191014D01*
X337851Y190896D01*
X337834Y190773D01*
X337807Y190656D01*
X337790Y190599D01*
X337772Y190546D01*
Y190542D01*
X337768Y190533D01*
X337759Y190520D01*
X337751Y190503D01*
X337724Y190454D01*
X337685Y190393D01*
X337633Y190323D01*
X337571Y190253D01*
X337493Y190179D01*
X337397Y190114D01*
X337392D01*
X337384Y190105D01*
X337370Y190101D01*
X337349Y190087D01*
X337322Y190074D01*
X337287Y190061D01*
X337252Y190048D01*
X337209Y190031D01*
X337161Y190013D01*
X337108Y190000D01*
X337051Y189987D01*
X336986Y189974D01*
X336920Y189965D01*
X336850Y189956D01*
X336693Y189948D01*
X336654D01*
X336623Y189952D01*
X336588D01*
X336544Y189956D01*
X336496Y189961D01*
X336448Y189965D01*
X336339Y189982D01*
X336221Y190009D01*
X336107Y190044D01*
X335998Y190092D01*
X335994D01*
X335985Y190101D01*
X335972Y190109D01*
X335954Y190118D01*
X335906Y190153D01*
X335850Y190201D01*
X335784Y190262D01*
X335723Y190332D01*
X335662Y190419D01*
X335614Y190516D01*
Y190520D01*
X335609Y190529D01*
X335605Y190546D01*
X335596Y190568D01*
X335587Y190594D01*
X335579Y190629D01*
X335565Y190669D01*
X335557Y190717D01*
X335548Y190769D01*
X335535Y190826D01*
X335526Y190887D01*
X335518Y190953D01*
X335509Y191027D01*
X335504Y191106D01*
X335500Y191189D01*
Y191276D01*
Y193024D01*
X335902D01*
Y191276D01*
Y191272D01*
Y191259D01*
Y191237D01*
Y191210D01*
X335906Y191180D01*
Y191141D01*
X335911Y191058D01*
X335919Y190961D01*
X335933Y190865D01*
X335950Y190773D01*
X335959Y190734D01*
X335972Y190695D01*
X335976Y190686D01*
X335985Y190664D01*
X336007Y190634D01*
X336033Y190590D01*
X336064Y190546D01*
X336107Y190498D01*
X336160Y190450D01*
X336221Y190411D01*
X336230Y190406D01*
X336252Y190393D01*
X336291Y190380D01*
X336343Y190363D01*
X336405Y190341D01*
X336483Y190328D01*
X336566Y190315D01*
X336658Y190310D01*
X336702D01*
X336728Y190315D01*
X336767D01*
X336807Y190319D01*
X336903Y190337D01*
X337008Y190358D01*
X337108Y190393D01*
X337204Y190441D01*
X337248Y190472D01*
X337287Y190507D01*
X337292Y190511D01*
X337296Y190516D01*
X337305Y190529D01*
X337318Y190546D01*
X337331Y190573D01*
X337349Y190599D01*
X337366Y190638D01*
X337384Y190677D01*
X337401Y190725D01*
X337414Y190782D01*
X337432Y190848D01*
X337445Y190918D01*
X337458Y190996D01*
X337467Y191079D01*
X337475Y191175D01*
Y191276D01*
Y193024D01*
X337877D01*
Y191276D01*
D02*
G37*
G36*
X277756Y372657D02*
X277861Y372639D01*
X277963Y372604D01*
X277966Y372602D01*
X277975Y372598D01*
X277991Y372589D01*
X278012Y372580D01*
X278037Y372568D01*
X278068Y372549D01*
X278105Y372530D01*
X278145Y372503D01*
X278188Y372472D01*
X278238Y372441D01*
X278287Y372404D01*
X278340Y372363D01*
X278398Y372317D01*
X278457Y372265D01*
X278519Y372209D01*
X278581Y372147D01*
X279817Y370911D01*
X279532Y370627D01*
X278296Y371863D01*
X278293Y371866D01*
X278284Y371875D01*
X278269Y371891D01*
X278250Y371909D01*
X278225Y371928D01*
X278198Y371956D01*
X278136Y372011D01*
X278062Y372073D01*
X277984Y372132D01*
X277907Y372184D01*
X277873Y372206D01*
X277836Y372224D01*
X277827Y372228D01*
X277805Y372237D01*
X277768Y372243D01*
X277719Y372255D01*
X277666Y372265D01*
X277601Y372268D01*
X277530Y372265D01*
X277459Y372249D01*
X277450Y372246D01*
X277425Y372240D01*
X277388Y372221D01*
X277339Y372197D01*
X277280Y372169D01*
X277215Y372123D01*
X277147Y372073D01*
X277079Y372011D01*
X277076Y372008D01*
X277067Y371999D01*
X277048Y371980D01*
X277033Y371959D01*
X277005Y371931D01*
X276980Y371900D01*
X276924Y371820D01*
X276866Y371730D01*
X276819Y371634D01*
X276785Y371532D01*
X276776Y371480D01*
X276773Y371427D01*
Y371421D01*
Y371415D01*
X276776Y371399D01*
X276779Y371378D01*
X276788Y371350D01*
X276795Y371319D01*
X276810Y371279D01*
X276826Y371239D01*
X276847Y371192D01*
X276878Y371143D01*
X276912Y371084D01*
X276952Y371025D01*
X276999Y370961D01*
X277051Y370896D01*
X277113Y370822D01*
X277184Y370750D01*
X278420Y369514D01*
X278136Y369230D01*
X276900Y370466D01*
X276897Y370469D01*
X276884Y370482D01*
X276869Y370497D01*
X276847Y370519D01*
X276822Y370550D01*
X276792Y370581D01*
X276758Y370621D01*
X276724Y370661D01*
X276649Y370754D01*
X276575Y370852D01*
X276510Y370954D01*
X276483Y371007D01*
X276458Y371056D01*
X276455Y371059D01*
X276452Y371069D01*
X276449Y371084D01*
X276442Y371103D01*
X276427Y371155D01*
X276412Y371226D01*
X276399Y371313D01*
X276393Y371406D01*
X276396Y371514D01*
X276418Y371628D01*
X276421Y371631D01*
Y371643D01*
X276427Y371656D01*
X276433Y371681D01*
X276442Y371708D01*
X276458Y371742D01*
X276473Y371776D01*
X276492Y371820D01*
X276514Y371866D01*
X276541Y371912D01*
X276572Y371962D01*
X276609Y372017D01*
X276649Y372070D01*
X276693Y372126D01*
X276798Y372243D01*
X276801Y372246D01*
X276810Y372255D01*
X276826Y372271D01*
X276850Y372289D01*
X276875Y372314D01*
X276909Y372342D01*
X276946Y372373D01*
X276983Y372404D01*
X277073Y372469D01*
X277175Y372533D01*
X277280Y372589D01*
X277391Y372632D01*
X277394Y372635D01*
X277407D01*
X277422Y372639D01*
X277441Y372645D01*
X277499Y372654D01*
X277573Y372660D01*
X277663Y372663D01*
X277756Y372657D01*
D02*
G37*
G36*
X275583Y370670D02*
X275617Y370667D01*
X275692Y370655D01*
X275778Y370630D01*
X275877Y370593D01*
X275979Y370540D01*
X276087Y370469D01*
X275855Y370194D01*
X275852Y370197D01*
X275843Y370200D01*
X275837Y370207D01*
X275821Y370216D01*
X275778Y370241D01*
X275729Y370265D01*
X275670Y370293D01*
X275605Y370315D01*
X275540Y370330D01*
X275475Y370333D01*
X275469D01*
X275447Y370330D01*
X275413Y370321D01*
X275376Y370309D01*
X275327Y370290D01*
X275274Y370262D01*
X275219Y370225D01*
X275166Y370179D01*
X275160Y370173D01*
X275145Y370157D01*
X275126Y370132D01*
X275101Y370102D01*
X275074Y370061D01*
X275049Y370018D01*
X275024Y369969D01*
X275009Y369916D01*
Y369910D01*
X275002Y369892D01*
X274996Y369861D01*
Y369824D01*
X274993Y369777D01*
Y369728D01*
X274996Y369675D01*
X275006Y369617D01*
Y369610D01*
X275015Y369589D01*
X275024Y369555D01*
X275040Y369514D01*
X275061Y369462D01*
X275089Y369403D01*
X275123Y369338D01*
X275163Y369267D01*
X275166Y369264D01*
Y369258D01*
X275175Y369249D01*
X275185Y369233D01*
X275209Y369196D01*
X275240Y369147D01*
X275284Y369091D01*
X275330Y369032D01*
X275386Y368971D01*
X275444Y368906D01*
X275447Y368903D01*
X275457Y368893D01*
X275472Y368878D01*
X275497Y368853D01*
X275494Y368863D01*
X275491Y368890D01*
X275488Y368931D01*
X275478Y368983D01*
Y369045D01*
X275481Y369116D01*
X275491Y369193D01*
X275509Y369273D01*
X275512Y369283D01*
X275521Y369310D01*
X275537Y369351D01*
X275559Y369397D01*
X275589Y369459D01*
X275627Y369521D01*
X275673Y369586D01*
X275729Y369647D01*
X275732Y369651D01*
X275741Y369660D01*
X275753Y369672D01*
X275775Y369688D01*
X275803Y369709D01*
X275831Y369731D01*
X275868Y369756D01*
X275908Y369777D01*
X276000Y369827D01*
X276053Y369848D01*
X276109Y369867D01*
X276170Y369885D01*
X276235Y369895D01*
X276300Y369904D01*
X276387D01*
X276402Y369901D01*
X276430Y369898D01*
X276467Y369892D01*
X276504Y369885D01*
X276547Y369873D01*
X276594Y369858D01*
X276646Y369842D01*
X276699Y369820D01*
X276758Y369793D01*
X276816Y369765D01*
X276878Y369728D01*
X276937Y369681D01*
X276995Y369635D01*
X277057Y369579D01*
X277060Y369576D01*
X277073Y369564D01*
X277088Y369549D01*
X277107Y369524D01*
X277132Y369493D01*
X277162Y369456D01*
X277190Y369416D01*
X277221Y369366D01*
X277280Y369264D01*
X277308Y369205D01*
X277335Y369141D01*
X277357Y369076D01*
X277369Y369008D01*
X277385Y368937D01*
X277388Y368866D01*
Y368859D01*
Y368847D01*
Y368829D01*
X277385Y368801D01*
X277382Y368767D01*
X277376Y368723D01*
X277366Y368683D01*
X277357Y368631D01*
X277345Y368581D01*
X277323Y368529D01*
X277274Y368411D01*
X277243Y368356D01*
X277203Y368297D01*
X277159Y368241D01*
X277110Y368186D01*
X277107Y368183D01*
X277101Y368177D01*
X277088Y368164D01*
X277070Y368152D01*
X277054Y368136D01*
X277029Y368118D01*
X276968Y368074D01*
X276897Y368028D01*
X276810Y367985D01*
X276717Y367948D01*
X276615Y367920D01*
X276612Y367917D01*
X276603Y367920D01*
X276588Y367917D01*
X276566Y367914D01*
X276510Y367908D01*
X276436Y367901D01*
X276350Y367908D01*
X276248Y367917D01*
X276143Y367942D01*
X276031Y367979D01*
X276028Y367982D01*
X276019Y367985D01*
X276000Y367991D01*
X275979Y368000D01*
X275951Y368016D01*
X275914Y368034D01*
X275877Y368059D01*
X275834Y368084D01*
X275784Y368115D01*
X275729Y368152D01*
X275673Y368195D01*
X275614Y368241D01*
X275549Y368294D01*
X275481Y368350D01*
X275410Y368414D01*
X275339Y368485D01*
X275336Y368489D01*
X275321Y368504D01*
X275299Y368526D01*
X275271Y368553D01*
X275240Y368591D01*
X275200Y368631D01*
X275157Y368680D01*
X275117Y368733D01*
X275021Y368847D01*
X274925Y368974D01*
X274842Y369100D01*
X274805Y369168D01*
X274774Y369230D01*
X274771Y369233D01*
X274768Y369243D01*
X274761Y369261D01*
X274749Y369286D01*
X274740Y369314D01*
X274727Y369351D01*
X274706Y369434D01*
X274684Y369530D01*
X274666Y369635D01*
X274662Y369749D01*
X274672Y369864D01*
X274675Y369867D01*
Y369879D01*
X274678Y369895D01*
X274684Y369913D01*
X274693Y369941D01*
X274700Y369972D01*
X274712Y370009D01*
X274727Y370043D01*
X274761Y370126D01*
X274811Y370219D01*
X274876Y370309D01*
X274956Y370401D01*
X274959Y370404D01*
X274968Y370414D01*
X274981Y370426D01*
X274999Y370438D01*
X275021Y370460D01*
X275049Y370482D01*
X275120Y370528D01*
X275200Y370578D01*
X275293Y370621D01*
X275395Y370655D01*
X275450Y370667D01*
X275506Y370673D01*
X275555D01*
X275583Y370670D01*
D02*
G37*
G36*
X244024Y302098D02*
X242211D01*
X242180Y302094D01*
X242141D01*
X242057Y302089D01*
X241961Y302080D01*
X241865Y302067D01*
X241774Y302050D01*
X241734Y302041D01*
X241695Y302028D01*
X241686Y302024D01*
X241664Y302015D01*
X241634Y301993D01*
X241590Y301967D01*
X241546Y301936D01*
X241498Y301893D01*
X241450Y301840D01*
X241411Y301779D01*
X241406Y301770D01*
X241393Y301748D01*
X241380Y301709D01*
X241363Y301657D01*
X241341Y301595D01*
X241328Y301517D01*
X241315Y301434D01*
X241310Y301342D01*
Y301338D01*
Y301325D01*
Y301298D01*
X241315Y301272D01*
Y301233D01*
X241319Y301193D01*
X241336Y301097D01*
X241358Y300992D01*
X241393Y300892D01*
X241441Y300796D01*
X241472Y300752D01*
X241507Y300713D01*
X241511Y300708D01*
X241516Y300704D01*
X241529Y300695D01*
X241546Y300682D01*
X241572Y300669D01*
X241599Y300652D01*
X241638Y300634D01*
X241677Y300617D01*
X241725Y300599D01*
X241782Y300586D01*
X241848Y300569D01*
X241918Y300555D01*
X241996Y300542D01*
X242079Y300534D01*
X242176Y300525D01*
X244024D01*
Y300123D01*
X242202D01*
X242162Y300127D01*
X242119D01*
X242066Y300132D01*
X242014Y300136D01*
X241896Y300149D01*
X241774Y300166D01*
X241655Y300193D01*
X241599Y300210D01*
X241546Y300228D01*
X241542D01*
X241533Y300232D01*
X241520Y300241D01*
X241503Y300249D01*
X241455Y300276D01*
X241393Y300315D01*
X241323Y300367D01*
X241253Y300429D01*
X241179Y300507D01*
X241114Y300603D01*
Y300608D01*
X241105Y300617D01*
X241101Y300630D01*
X241087Y300652D01*
X241074Y300678D01*
X241061Y300713D01*
X241048Y300748D01*
X241031Y300791D01*
X241013Y300839D01*
X241000Y300892D01*
X240987Y300949D01*
X240974Y301014D01*
X240965Y301080D01*
X240956Y301150D01*
X240948Y301307D01*
Y301311D01*
Y301325D01*
Y301346D01*
X240952Y301377D01*
Y301412D01*
X240956Y301456D01*
X240961Y301504D01*
X240965Y301552D01*
X240983Y301661D01*
X241009Y301779D01*
X241044Y301893D01*
X241092Y302002D01*
Y302006D01*
X241101Y302015D01*
X241109Y302028D01*
X241118Y302045D01*
X241153Y302094D01*
X241201Y302150D01*
X241262Y302216D01*
X241332Y302277D01*
X241420Y302338D01*
X241516Y302386D01*
X241520D01*
X241529Y302391D01*
X241546Y302395D01*
X241568Y302404D01*
X241594Y302413D01*
X241629Y302421D01*
X241669Y302434D01*
X241717Y302443D01*
X241769Y302452D01*
X241826Y302465D01*
X241887Y302474D01*
X241953Y302483D01*
X242027Y302491D01*
X242106Y302496D01*
X242189Y302500D01*
X244024D01*
Y302098D01*
D02*
G37*
G36*
X241918Y299607D02*
X241944D01*
X241974Y299603D01*
X242044Y299594D01*
X242123Y299576D01*
X242202Y299550D01*
X242285Y299511D01*
X242363Y299463D01*
X242368D01*
X242372Y299454D01*
X242394Y299437D01*
X242429Y299402D01*
X242473Y299354D01*
X242516Y299292D01*
X242565Y299218D01*
X242604Y299135D01*
X242634Y299035D01*
Y299039D01*
X242639Y299043D01*
X242643Y299056D01*
X242652Y299074D01*
X242669Y299113D01*
X242696Y299166D01*
X242730Y299222D01*
X242774Y299279D01*
X242822Y299332D01*
X242875Y299380D01*
X242883Y299384D01*
X242901Y299397D01*
X242936Y299415D01*
X242980Y299432D01*
X243036Y299454D01*
X243102Y299472D01*
X243176Y299485D01*
X243255Y299489D01*
X243285D01*
X243312Y299485D01*
X243338Y299480D01*
X243373Y299476D01*
X243447Y299459D01*
X243535Y299432D01*
X243626Y299389D01*
X243674Y299362D01*
X243723Y299332D01*
X243766Y299292D01*
X243810Y299253D01*
X243814Y299249D01*
X243819Y299240D01*
X243832Y299227D01*
X243845Y299209D01*
X243862Y299187D01*
X243880Y299157D01*
X243902Y299122D01*
X243923Y299087D01*
X243945Y299043D01*
X243967Y298995D01*
X243985Y298943D01*
X244002Y298886D01*
X244028Y298764D01*
X244033Y298694D01*
X244037Y298624D01*
Y298619D01*
Y298606D01*
Y298585D01*
X244033Y298558D01*
X244028Y298523D01*
X244024Y298484D01*
X244020Y298440D01*
X244007Y298397D01*
X243980Y298292D01*
X243941Y298187D01*
X243915Y298134D01*
X243884Y298082D01*
X243845Y298034D01*
X243806Y297986D01*
X243801Y297981D01*
X243797Y297977D01*
X243784Y297964D01*
X243766Y297947D01*
X243740Y297929D01*
X243714Y297907D01*
X243648Y297863D01*
X243565Y297820D01*
X243469Y297780D01*
X243360Y297750D01*
X243303Y297745D01*
X243242Y297741D01*
X243207D01*
X243167Y297745D01*
X243120Y297754D01*
X243058Y297767D01*
X242997Y297789D01*
X242936Y297815D01*
X242875Y297855D01*
X242866Y297859D01*
X242848Y297877D01*
X242822Y297903D01*
X242787Y297938D01*
X242748Y297986D01*
X242709Y298043D01*
X242669Y298108D01*
X242634Y298187D01*
Y298182D01*
X242630Y298174D01*
X242626Y298161D01*
X242617Y298143D01*
X242595Y298091D01*
X242565Y298029D01*
X242521Y297964D01*
X242473Y297894D01*
X242411Y297829D01*
X242342Y297767D01*
X242337D01*
X242333Y297763D01*
X242307Y297745D01*
X242263Y297719D01*
X242206Y297693D01*
X242136Y297667D01*
X242053Y297641D01*
X241961Y297623D01*
X241861Y297619D01*
X241822D01*
X241795Y297623D01*
X241765Y297627D01*
X241725Y297632D01*
X241682Y297641D01*
X241634Y297654D01*
X241533Y297684D01*
X241476Y297706D01*
X241424Y297737D01*
X241367Y297767D01*
X241315Y297802D01*
X241262Y297846D01*
X241210Y297894D01*
X241205Y297898D01*
X241197Y297907D01*
X241183Y297920D01*
X241170Y297942D01*
X241149Y297973D01*
X241127Y298003D01*
X241105Y298043D01*
X241079Y298086D01*
X241052Y298134D01*
X241031Y298191D01*
X241009Y298252D01*
X240987Y298313D01*
X240974Y298383D01*
X240961Y298458D01*
X240952Y298532D01*
X240948Y298615D01*
Y298619D01*
Y298637D01*
Y298659D01*
X240952Y298689D01*
X240956Y298729D01*
X240961Y298772D01*
X240969Y298820D01*
X240983Y298873D01*
X241013Y298991D01*
X241035Y299052D01*
X241057Y299109D01*
X241087Y299170D01*
X241122Y299231D01*
X241162Y299288D01*
X241210Y299341D01*
X241214Y299345D01*
X241223Y299354D01*
X241236Y299367D01*
X241258Y299384D01*
X241284Y299402D01*
X241315Y299428D01*
X241350Y299450D01*
X241393Y299476D01*
X241437Y299502D01*
X241489Y299524D01*
X241599Y299568D01*
X241664Y299585D01*
X241730Y299598D01*
X241800Y299607D01*
X241870Y299611D01*
X241900D01*
X241918Y299607D01*
D02*
G37*
G36*
X411961Y216673D02*
X411964Y216670D01*
X411976Y216658D01*
X411992Y216642D01*
X412013Y216621D01*
X412038Y216590D01*
X412069Y216559D01*
X412103Y216519D01*
X412137Y216479D01*
X412211Y216386D01*
X412285Y216287D01*
X412350Y216185D01*
X412378Y216133D01*
X412402Y216083D01*
X412406Y216080D01*
X412409Y216071D01*
X412412Y216055D01*
X412418Y216037D01*
X412433Y215984D01*
X412449Y215913D01*
X412461Y215827D01*
X412467Y215734D01*
X412464Y215626D01*
X412443Y215511D01*
X412440Y215508D01*
Y215496D01*
X412433Y215484D01*
X412427Y215459D01*
X412418Y215431D01*
X412402Y215397D01*
X412387Y215363D01*
X412369Y215320D01*
X412347Y215274D01*
X412319Y215227D01*
X412288Y215178D01*
X412251Y215122D01*
X412211Y215070D01*
X412168Y215014D01*
X412063Y214897D01*
X412060Y214894D01*
X412050Y214884D01*
X412035Y214869D01*
X412010Y214850D01*
X411985Y214826D01*
X411951Y214798D01*
X411914Y214767D01*
X411877Y214736D01*
X411788Y214671D01*
X411686Y214606D01*
X411581Y214550D01*
X411469Y214507D01*
X411466Y214504D01*
X411454D01*
X411439Y214501D01*
X411420Y214495D01*
X411361Y214486D01*
X411287Y214479D01*
X411197Y214476D01*
X411105Y214482D01*
X411000Y214501D01*
X410898Y214535D01*
X410895Y214538D01*
X410885Y214541D01*
X410870Y214550D01*
X410848Y214560D01*
X410823Y214572D01*
X410793Y214591D01*
X410756Y214609D01*
X410715Y214637D01*
X410672Y214668D01*
X410623Y214699D01*
X410573Y214736D01*
X410521Y214776D01*
X410462Y214822D01*
X410403Y214875D01*
X410342Y214931D01*
X410280Y214992D01*
X409044Y216228D01*
X409328Y216513D01*
X410564Y215277D01*
X410567Y215274D01*
X410576Y215264D01*
X410592Y215249D01*
X410610Y215230D01*
X410635Y215212D01*
X410663Y215184D01*
X410725Y215128D01*
X410799Y215067D01*
X410876Y215008D01*
X410953Y214955D01*
X410987Y214934D01*
X411024Y214915D01*
X411034Y214912D01*
X411055Y214903D01*
X411092Y214897D01*
X411142Y214884D01*
X411194Y214875D01*
X411259Y214872D01*
X411330Y214875D01*
X411401Y214890D01*
X411411Y214894D01*
X411435Y214900D01*
X411473Y214918D01*
X411522Y214943D01*
X411581Y214971D01*
X411646Y215017D01*
X411714Y215067D01*
X411782Y215128D01*
X411785Y215131D01*
X411794Y215141D01*
X411812Y215159D01*
X411828Y215181D01*
X411856Y215209D01*
X411880Y215240D01*
X411936Y215320D01*
X411995Y215409D01*
X412041Y215505D01*
X412075Y215607D01*
X412084Y215660D01*
X412087Y215712D01*
Y215719D01*
Y215725D01*
X412084Y215740D01*
X412081Y215762D01*
X412072Y215790D01*
X412066Y215821D01*
X412050Y215861D01*
X412035Y215901D01*
X412013Y215947D01*
X411982Y215997D01*
X411948Y216055D01*
X411908Y216114D01*
X411862Y216179D01*
X411809Y216244D01*
X411748Y216318D01*
X411676Y216389D01*
X410440Y217625D01*
X410725Y217909D01*
X411961Y216673D01*
D02*
G37*
G36*
X420691Y363402D02*
X420718Y363399D01*
X420752Y363396D01*
X420793Y363387D01*
X420839Y363378D01*
X420888Y363359D01*
X420941Y363344D01*
X421000Y363322D01*
X421055Y363297D01*
X421117Y363266D01*
X421179Y363229D01*
X421241Y363186D01*
X421299Y363140D01*
X421361Y363084D01*
X421364Y363081D01*
X421374Y363072D01*
X421389Y363056D01*
X421404Y363035D01*
X421426Y363007D01*
X421451Y362976D01*
X421476Y362939D01*
X421503Y362899D01*
X421559Y362806D01*
X421605Y362698D01*
X421627Y362639D01*
X421642Y362580D01*
X421652Y362515D01*
X421661Y362451D01*
Y362444D01*
Y362432D01*
Y362414D01*
X421658Y362392D01*
Y362361D01*
X421652Y362324D01*
X421649Y362284D01*
X421639Y362237D01*
X421627Y362188D01*
X421615Y362139D01*
X421574Y362030D01*
X421516Y361916D01*
X421479Y361860D01*
X421435Y361805D01*
X421139Y362034D01*
X421142Y362037D01*
X421145Y362046D01*
X421154Y362061D01*
X421167Y362080D01*
X421182Y362102D01*
X421197Y362129D01*
X421228Y362191D01*
X421262Y362268D01*
X421287Y362349D01*
X421306Y362429D01*
X421312Y362509D01*
X421309Y362519D01*
Y362543D01*
X421299Y362583D01*
X421284Y362630D01*
X421265Y362685D01*
X421235Y362747D01*
X421194Y362812D01*
X421142Y362871D01*
X421139Y362874D01*
X421133Y362880D01*
X421123Y362889D01*
X421108Y362899D01*
X421071Y362930D01*
X421018Y362964D01*
X420953Y362998D01*
X420879Y363029D01*
X420796Y363050D01*
X420703Y363056D01*
X420691D01*
X420657Y363053D01*
X420610Y363044D01*
X420548Y363032D01*
X420477Y363010D01*
X420406Y362976D01*
X420329Y362930D01*
X420255Y362868D01*
X420252Y362865D01*
X420246Y362859D01*
X420236Y362849D01*
X420227Y362834D01*
X420196Y362797D01*
X420165Y362747D01*
X420128Y362685D01*
X420100Y362614D01*
X420082Y362534D01*
X420076Y362448D01*
Y362435D01*
X420079Y362407D01*
X420085Y362364D01*
X420097Y362309D01*
X420119Y362244D01*
X420153Y362173D01*
X420199Y362102D01*
X420258Y362030D01*
X420261Y362027D01*
X420270Y362018D01*
X420286Y362003D01*
X420310Y361984D01*
X420341Y361959D01*
X420378Y361935D01*
X420422Y361904D01*
X420471Y361873D01*
X420209Y361672D01*
X420205Y361675D01*
X420193Y361687D01*
X420184Y361703D01*
X420171Y361715D01*
X420168Y361718D01*
X420165Y361721D01*
X420156Y361731D01*
X420144Y361743D01*
X420104Y361771D01*
X420057Y361805D01*
X420002Y361842D01*
X419934Y361879D01*
X419863Y361907D01*
X419782Y361931D01*
X419779Y361935D01*
X419773D01*
X419745Y361938D01*
X419702D01*
X419649Y361935D01*
X419584Y361919D01*
X419516Y361894D01*
X419448Y361857D01*
X419411Y361833D01*
X419377Y361799D01*
X419374Y361796D01*
X419371Y361792D01*
X419353Y361774D01*
X419334Y361743D01*
X419306Y361703D01*
X419281Y361653D01*
X419257Y361598D01*
X419241Y361533D01*
X419238Y361462D01*
Y361456D01*
X419241Y361428D01*
X419248Y361391D01*
X419257Y361344D01*
X419278Y361292D01*
X419306Y361233D01*
X419343Y361171D01*
X419396Y361113D01*
X419399Y361109D01*
X419402Y361106D01*
X419421Y361088D01*
X419455Y361066D01*
X419498Y361035D01*
X419550Y361008D01*
X419606Y360983D01*
X419674Y360964D01*
X419745Y360955D01*
X419751D01*
X419779Y360958D01*
X419819Y360961D01*
X419872Y360970D01*
X419934Y360989D01*
X420005Y361017D01*
X420082Y361057D01*
X420162Y361113D01*
X420378Y360804D01*
X420375Y360801D01*
X420363Y360794D01*
X420348Y360785D01*
X420326Y360770D01*
X420298Y360754D01*
X420264Y360739D01*
X420187Y360699D01*
X420088Y360662D01*
X419983Y360631D01*
X419872Y360612D01*
X419748D01*
X419739Y360615D01*
X419723Y360618D01*
X419702Y360621D01*
X419674Y360624D01*
X419640Y360634D01*
X419606Y360643D01*
X419563Y360655D01*
X419476Y360692D01*
X419380Y360739D01*
X419281Y360807D01*
X419232Y360844D01*
X419186Y360890D01*
X419183Y360893D01*
X419176Y360899D01*
X419167Y360909D01*
X419155Y360921D01*
X419124Y360958D01*
X419090Y361004D01*
X419050Y361063D01*
X419010Y361134D01*
X418972Y361208D01*
X418942Y361289D01*
X418939Y361292D01*
Y361298D01*
X418929Y361326D01*
X418920Y361372D01*
X418911Y361425D01*
X418905Y361493D01*
X418901Y361564D01*
X418905Y361641D01*
X418920Y361718D01*
X418923Y361728D01*
X418929Y361752D01*
X418945Y361792D01*
X418963Y361842D01*
X418988Y361897D01*
X419022Y361956D01*
X419065Y362018D01*
X419115Y362074D01*
X419121Y362080D01*
X419139Y362098D01*
X419167Y362120D01*
X419207Y362148D01*
X419257Y362179D01*
X419315Y362207D01*
X419377Y362231D01*
X419445Y362250D01*
X419455Y362253D01*
X419476Y362256D01*
X419516Y362259D01*
X419566D01*
X419625Y362256D01*
X419693Y362250D01*
X419764Y362234D01*
X419844Y362210D01*
X419841Y362213D01*
X419838Y362222D01*
X419832Y362234D01*
X419822Y362250D01*
X419801Y362296D01*
X419776Y362358D01*
X419751Y362432D01*
X419733Y362512D01*
X419727Y362599D01*
X419730Y362689D01*
X419733Y362698D01*
X419739Y362729D01*
X419751Y362778D01*
X419773Y362837D01*
X419804Y362905D01*
X419844Y362982D01*
X419900Y363063D01*
X419971Y363140D01*
X419974Y363143D01*
X419983Y363152D01*
X419998Y363168D01*
X420020Y363183D01*
X420048Y363205D01*
X420082Y363226D01*
X420119Y363251D01*
X420159Y363279D01*
X420258Y363328D01*
X420317Y363350D01*
X420372Y363368D01*
X420437Y363384D01*
X420505Y363396D01*
X420576Y363405D01*
X420669D01*
X420691Y363402D01*
D02*
G37*
G36*
X422514Y361604D02*
X422628Y361582D01*
X422631Y361579D01*
X422644D01*
X422656Y361573D01*
X422681Y361567D01*
X422708Y361558D01*
X422742Y361542D01*
X422776Y361527D01*
X422820Y361508D01*
X422866Y361487D01*
X422912Y361459D01*
X422962Y361428D01*
X423017Y361391D01*
X423070Y361351D01*
X423126Y361307D01*
X423243Y361202D01*
X423246Y361199D01*
X423255Y361190D01*
X423271Y361174D01*
X423289Y361150D01*
X423314Y361125D01*
X423342Y361091D01*
X423373Y361054D01*
X423404Y361017D01*
X423469Y360927D01*
X423533Y360825D01*
X423589Y360720D01*
X423632Y360609D01*
X423635Y360606D01*
Y360594D01*
X423638Y360578D01*
X423645Y360560D01*
X423654Y360501D01*
X423660Y360427D01*
X423663Y360337D01*
X423657Y360244D01*
X423638Y360139D01*
X423604Y360037D01*
X423601Y360034D01*
X423598Y360025D01*
X423589Y360010D01*
X423580Y359988D01*
X423567Y359963D01*
X423549Y359932D01*
X423530Y359895D01*
X423503Y359855D01*
X423472Y359812D01*
X423441Y359762D01*
X423404Y359713D01*
X423363Y359660D01*
X423317Y359602D01*
X423265Y359543D01*
X423209Y359481D01*
X423147Y359419D01*
X421911Y358183D01*
X421627Y358468D01*
X422863Y359704D01*
X422866Y359707D01*
X422875Y359716D01*
X422891Y359731D01*
X422909Y359750D01*
X422928Y359775D01*
X422956Y359803D01*
X423011Y359864D01*
X423073Y359938D01*
X423132Y360016D01*
X423184Y360093D01*
X423206Y360127D01*
X423224Y360164D01*
X423228Y360173D01*
X423237Y360195D01*
X423243Y360232D01*
X423255Y360281D01*
X423265Y360334D01*
X423268Y360399D01*
X423265Y360470D01*
X423249Y360541D01*
X423246Y360550D01*
X423240Y360575D01*
X423221Y360612D01*
X423197Y360662D01*
X423169Y360720D01*
X423123Y360785D01*
X423073Y360853D01*
X423011Y360921D01*
X423008Y360924D01*
X422999Y360933D01*
X422980Y360952D01*
X422959Y360967D01*
X422931Y360995D01*
X422900Y361020D01*
X422820Y361076D01*
X422730Y361134D01*
X422634Y361181D01*
X422532Y361215D01*
X422480Y361224D01*
X422427Y361227D01*
X422415D01*
X422399Y361224D01*
X422378Y361221D01*
X422350Y361211D01*
X422319Y361205D01*
X422279Y361190D01*
X422239Y361174D01*
X422192Y361153D01*
X422143Y361122D01*
X422084Y361088D01*
X422025Y361048D01*
X421961Y361001D01*
X421896Y360949D01*
X421822Y360887D01*
X421750Y360816D01*
X420514Y359580D01*
X420230Y359864D01*
X421466Y361100D01*
X421469Y361103D01*
X421482Y361116D01*
X421497Y361131D01*
X421519Y361153D01*
X421550Y361177D01*
X421581Y361208D01*
X421621Y361242D01*
X421661Y361276D01*
X421754Y361351D01*
X421852Y361425D01*
X421954Y361490D01*
X422007Y361517D01*
X422056Y361542D01*
X422059Y361545D01*
X422069Y361548D01*
X422084Y361551D01*
X422103Y361558D01*
X422155Y361573D01*
X422226Y361589D01*
X422313Y361601D01*
X422406Y361607D01*
X422514Y361604D01*
D02*
G37*
G36*
X352377Y397048D02*
X352412D01*
X352456Y397044D01*
X352504Y397039D01*
X352552Y397035D01*
X352661Y397018D01*
X352779Y396991D01*
X352893Y396956D01*
X353002Y396908D01*
X353006D01*
X353015Y396900D01*
X353028Y396891D01*
X353046Y396882D01*
X353094Y396847D01*
X353150Y396799D01*
X353216Y396738D01*
X353277Y396668D01*
X353338Y396581D01*
X353386Y396484D01*
Y396480D01*
X353391Y396471D01*
X353395Y396454D01*
X353404Y396432D01*
X353413Y396406D01*
X353421Y396371D01*
X353434Y396331D01*
X353443Y396283D01*
X353452Y396231D01*
X353465Y396174D01*
X353474Y396113D01*
X353483Y396047D01*
X353491Y395973D01*
X353496Y395894D01*
X353500Y395811D01*
Y395724D01*
Y393976D01*
X353098D01*
Y395724D01*
Y395728D01*
Y395741D01*
Y395763D01*
Y395790D01*
X353094Y395820D01*
Y395859D01*
X353089Y395942D01*
X353081Y396039D01*
X353067Y396135D01*
X353050Y396227D01*
X353041Y396266D01*
X353028Y396305D01*
X353024Y396314D01*
X353015Y396336D01*
X352993Y396366D01*
X352967Y396410D01*
X352936Y396454D01*
X352893Y396502D01*
X352840Y396550D01*
X352779Y396589D01*
X352770Y396594D01*
X352748Y396607D01*
X352709Y396620D01*
X352657Y396637D01*
X352595Y396659D01*
X352517Y396672D01*
X352434Y396685D01*
X352342Y396690D01*
X352298D01*
X352272Y396685D01*
X352233D01*
X352193Y396681D01*
X352097Y396663D01*
X351992Y396642D01*
X351892Y396607D01*
X351796Y396559D01*
X351752Y396528D01*
X351713Y396493D01*
X351708Y396489D01*
X351704Y396484D01*
X351695Y396471D01*
X351682Y396454D01*
X351669Y396427D01*
X351652Y396401D01*
X351634Y396362D01*
X351617Y396323D01*
X351599Y396275D01*
X351586Y396218D01*
X351569Y396152D01*
X351555Y396082D01*
X351542Y396004D01*
X351534Y395921D01*
X351525Y395825D01*
Y395724D01*
Y393976D01*
X351123D01*
Y395724D01*
Y395728D01*
Y395746D01*
Y395768D01*
Y395798D01*
X351127Y395838D01*
Y395881D01*
X351132Y395934D01*
X351136Y395986D01*
X351149Y396104D01*
X351166Y396227D01*
X351193Y396344D01*
X351210Y396401D01*
X351228Y396454D01*
Y396458D01*
X351232Y396467D01*
X351241Y396480D01*
X351249Y396497D01*
X351276Y396546D01*
X351315Y396607D01*
X351367Y396677D01*
X351429Y396746D01*
X351507Y396821D01*
X351603Y396886D01*
X351608D01*
X351617Y396895D01*
X351630Y396900D01*
X351652Y396913D01*
X351678Y396926D01*
X351713Y396939D01*
X351748Y396952D01*
X351791Y396969D01*
X351839Y396987D01*
X351892Y397000D01*
X351949Y397013D01*
X352014Y397026D01*
X352080Y397035D01*
X352150Y397044D01*
X352307Y397052D01*
X352346D01*
X352377Y397048D01*
D02*
G37*
G36*
X350659Y396996D02*
Y396978D01*
Y396952D01*
X350655Y396917D01*
X350651Y396878D01*
X350642Y396834D01*
X350633Y396790D01*
X350616Y396742D01*
Y396738D01*
X350611Y396733D01*
X350603Y396707D01*
X350585Y396668D01*
X350559Y396615D01*
X350524Y396554D01*
X350480Y396484D01*
X350432Y396414D01*
X350371Y396340D01*
Y396336D01*
X350362Y396331D01*
X350341Y396305D01*
X350301Y396266D01*
X350244Y396209D01*
X350179Y396144D01*
X350096Y396065D01*
X349995Y395977D01*
X349886Y395886D01*
X349882Y395881D01*
X349864Y395868D01*
X349838Y395846D01*
X349807Y395820D01*
X349768Y395785D01*
X349720Y395746D01*
X349672Y395702D01*
X349615Y395654D01*
X349506Y395549D01*
X349397Y395444D01*
X349344Y395392D01*
X349296Y395339D01*
X349252Y395291D01*
X349217Y395243D01*
Y395239D01*
X349209Y395234D01*
X349200Y395221D01*
X349191Y395204D01*
X349161Y395156D01*
X349126Y395099D01*
X349095Y395029D01*
X349064Y394955D01*
X349047Y394872D01*
X349038Y394793D01*
Y394789D01*
Y394784D01*
X349043Y394758D01*
X349047Y394714D01*
X349060Y394666D01*
X349078Y394605D01*
X349108Y394544D01*
X349148Y394483D01*
X349200Y394422D01*
X349209Y394413D01*
X349231Y394395D01*
X349261Y394374D01*
X349309Y394343D01*
X349370Y394317D01*
X349440Y394291D01*
X349523Y394273D01*
X349615Y394269D01*
X349641D01*
X349659Y394273D01*
X349711Y394278D01*
X349772Y394291D01*
X349838Y394308D01*
X349912Y394339D01*
X349982Y394378D01*
X350048Y394430D01*
X350056Y394439D01*
X350074Y394461D01*
X350100Y394496D01*
X350126Y394548D01*
X350157Y394610D01*
X350183Y394688D01*
X350201Y394776D01*
X350209Y394876D01*
X350590Y394837D01*
Y394832D01*
X350585Y394819D01*
Y394797D01*
X350581Y394767D01*
X350572Y394732D01*
X350563Y394693D01*
X350550Y394645D01*
X350537Y394597D01*
X350502Y394492D01*
X350450Y394387D01*
X350419Y394334D01*
X350380Y394282D01*
X350341Y394234D01*
X350297Y394190D01*
X350292Y394186D01*
X350284Y394181D01*
X350271Y394168D01*
X350249Y394155D01*
X350222Y394138D01*
X350192Y394120D01*
X350157Y394098D01*
X350113Y394076D01*
X350065Y394055D01*
X350013Y394033D01*
X349956Y394015D01*
X349895Y393998D01*
X349829Y393985D01*
X349759Y393972D01*
X349685Y393967D01*
X349606Y393963D01*
X349563D01*
X349532Y393967D01*
X349497Y393972D01*
X349453Y393976D01*
X349405Y393985D01*
X349357Y393993D01*
X349244Y394024D01*
X349130Y394068D01*
X349073Y394094D01*
X349016Y394125D01*
X348964Y394164D01*
X348916Y394208D01*
X348911Y394212D01*
X348903Y394216D01*
X348894Y394234D01*
X348877Y394251D01*
X348855Y394273D01*
X348833Y394304D01*
X348811Y394334D01*
X348785Y394374D01*
X348741Y394457D01*
X348697Y394562D01*
X348680Y394614D01*
X348671Y394675D01*
X348662Y394736D01*
X348658Y394802D01*
Y394811D01*
Y394832D01*
X348662Y394867D01*
X348667Y394916D01*
X348675Y394968D01*
X348693Y395029D01*
X348710Y395095D01*
X348737Y395160D01*
X348741Y395169D01*
X348750Y395191D01*
X348767Y395226D01*
X348794Y395274D01*
X348829Y395326D01*
X348872Y395392D01*
X348925Y395457D01*
X348986Y395532D01*
X348994Y395540D01*
X349016Y395567D01*
X349038Y395588D01*
X349060Y395610D01*
X349086Y395637D01*
X349121Y395672D01*
X349156Y395707D01*
X349200Y395746D01*
X349244Y395790D01*
X349296Y395838D01*
X349353Y395886D01*
X349414Y395942D01*
X349484Y395999D01*
X349554Y396060D01*
X349558Y396065D01*
X349567Y396074D01*
X349585Y396087D01*
X349606Y396104D01*
X349633Y396130D01*
X349663Y396157D01*
X349733Y396213D01*
X349807Y396279D01*
X349877Y396344D01*
X349939Y396401D01*
X349965Y396423D01*
X349987Y396445D01*
X349991Y396449D01*
X350004Y396462D01*
X350022Y396480D01*
X350043Y396506D01*
X350065Y396537D01*
X350091Y396567D01*
X350144Y396642D01*
X348654D01*
Y397000D01*
X350659D01*
Y396996D01*
D02*
G37*
G36*
X412684Y219312D02*
X411828Y218456D01*
X412291Y217764D01*
Y217770D01*
X412294Y217780D01*
X412297Y217795D01*
X412304Y217820D01*
X412313Y217848D01*
X412322Y217882D01*
X412347Y217956D01*
X412384Y218042D01*
X412430Y218132D01*
X412489Y218221D01*
X412520Y218265D01*
X412560Y218305D01*
X412563Y218308D01*
X412572Y218317D01*
X412588Y218333D01*
X412610Y218348D01*
X412637Y218370D01*
X412668Y218394D01*
X412705Y218419D01*
X412749Y218444D01*
X412844Y218496D01*
X412900Y218521D01*
X412962Y218540D01*
X413024Y218558D01*
X413089Y218574D01*
X413157Y218580D01*
X413228Y218583D01*
X413265D01*
X413293Y218580D01*
X413330Y218574D01*
X413367Y218568D01*
X413413Y218558D01*
X413462Y218546D01*
X413512Y218527D01*
X413567Y218509D01*
X413626Y218481D01*
X413685Y218453D01*
X413744Y218419D01*
X413805Y218376D01*
X413864Y218330D01*
X413923Y218277D01*
X413926Y218274D01*
X413935Y218265D01*
X413951Y218249D01*
X413969Y218225D01*
X413991Y218197D01*
X414016Y218166D01*
X414043Y218126D01*
X414071Y218086D01*
X414133Y217987D01*
X414185Y217872D01*
X414210Y217811D01*
X414226Y217746D01*
X414244Y217678D01*
X414254Y217607D01*
Y217600D01*
X414257Y217585D01*
Y217560D01*
Y217529D01*
X414254Y217489D01*
Y217440D01*
X414244Y217387D01*
X414235Y217329D01*
X414223Y217267D01*
X414201Y217202D01*
X414176Y217134D01*
X414148Y217063D01*
X414111Y216995D01*
X414065Y216924D01*
X414012Y216853D01*
X413951Y216785D01*
X413948Y216781D01*
X413938Y216772D01*
X413923Y216757D01*
X413898Y216738D01*
X413870Y216717D01*
X413839Y216692D01*
X413802Y216661D01*
X413759Y216636D01*
X413663Y216578D01*
X413558Y216528D01*
X413499Y216507D01*
X413438Y216488D01*
X413376Y216476D01*
X413311Y216466D01*
X413305D01*
X413296Y216463D01*
X413277Y216469D01*
X413221D01*
X413187Y216473D01*
X413144Y216479D01*
X413101Y216491D01*
X413055Y216500D01*
X413002Y216516D01*
X412894Y216556D01*
X412780Y216615D01*
X412724Y216652D01*
X412668Y216695D01*
X412922Y216992D01*
X412925Y216989D01*
X412931Y216982D01*
X412943Y216976D01*
X412962Y216964D01*
X413005Y216939D01*
X413064Y216905D01*
X413129Y216877D01*
X413206Y216849D01*
X413283Y216834D01*
X413364Y216828D01*
X413373Y216831D01*
X413398D01*
X413438Y216840D01*
X413490Y216856D01*
X413546Y216874D01*
X413608Y216905D01*
X413673Y216945D01*
X413734Y217001D01*
X413737Y217004D01*
X413744Y217010D01*
X413753Y217020D01*
X413762Y217035D01*
X413796Y217075D01*
X413827Y217131D01*
X413864Y217199D01*
X413892Y217276D01*
X413910Y217369D01*
X413914Y217415D01*
Y217464D01*
Y217471D01*
Y217477D01*
X413910Y217492D01*
Y217511D01*
X413898Y217566D01*
X413880Y217634D01*
X413849Y217709D01*
X413805Y217795D01*
X413744Y217888D01*
X413710Y217934D01*
X413666Y217977D01*
X413663Y217981D01*
X413657Y217987D01*
X413645Y217999D01*
X413626Y218011D01*
X413608Y218030D01*
X413583Y218049D01*
X413524Y218089D01*
X413450Y218132D01*
X413370Y218169D01*
X413283Y218194D01*
X413187Y218203D01*
X413184Y218206D01*
X413175Y218203D01*
X413144D01*
X413095Y218197D01*
X413033Y218184D01*
X412962Y218157D01*
X412885Y218123D01*
X412804Y218073D01*
X412761Y218042D01*
X412724Y218005D01*
X412718Y217999D01*
X412702Y217984D01*
X412681Y217956D01*
X412653Y217922D01*
X412625Y217875D01*
X412597Y217829D01*
X412572Y217774D01*
X412551Y217715D01*
Y217709D01*
X412545Y217690D01*
X412542Y217656D01*
X412532Y217616D01*
X412529Y217569D01*
X412532Y217517D01*
Y217461D01*
X412545Y217406D01*
X412263Y217193D01*
X411371Y218500D01*
X412433Y219563D01*
X412684Y219312D01*
D02*
G37*
G36*
X446838Y286873D02*
X446881D01*
X446934Y286869D01*
X446986Y286864D01*
X447104Y286851D01*
X447226Y286834D01*
X447344Y286807D01*
X447401Y286790D01*
X447454Y286772D01*
X447458D01*
X447467Y286768D01*
X447480Y286759D01*
X447498Y286751D01*
X447545Y286724D01*
X447607Y286685D01*
X447677Y286633D01*
X447747Y286571D01*
X447821Y286493D01*
X447886Y286397D01*
Y286392D01*
X447895Y286384D01*
X447899Y286370D01*
X447913Y286349D01*
X447926Y286322D01*
X447939Y286287D01*
X447952Y286252D01*
X447969Y286209D01*
X447987Y286161D01*
X448000Y286108D01*
X448013Y286051D01*
X448026Y285986D01*
X448035Y285920D01*
X448044Y285850D01*
X448052Y285693D01*
Y285689D01*
Y285676D01*
Y285654D01*
X448048Y285623D01*
Y285588D01*
X448044Y285544D01*
X448039Y285496D01*
X448035Y285448D01*
X448018Y285339D01*
X447991Y285221D01*
X447956Y285107D01*
X447908Y284998D01*
Y284994D01*
X447899Y284985D01*
X447891Y284972D01*
X447882Y284955D01*
X447847Y284906D01*
X447799Y284850D01*
X447738Y284784D01*
X447668Y284723D01*
X447580Y284662D01*
X447484Y284614D01*
X447480D01*
X447471Y284609D01*
X447454Y284605D01*
X447432Y284596D01*
X447406Y284587D01*
X447371Y284579D01*
X447331Y284565D01*
X447283Y284557D01*
X447231Y284548D01*
X447174Y284535D01*
X447113Y284526D01*
X447047Y284518D01*
X446973Y284509D01*
X446894Y284504D01*
X446811Y284500D01*
X444976D01*
Y284902D01*
X446790D01*
X446820Y284906D01*
X446859D01*
X446943Y284911D01*
X447039Y284920D01*
X447135Y284933D01*
X447226Y284950D01*
X447266Y284959D01*
X447305Y284972D01*
X447314Y284976D01*
X447336Y284985D01*
X447366Y285007D01*
X447410Y285033D01*
X447454Y285064D01*
X447502Y285107D01*
X447550Y285160D01*
X447589Y285221D01*
X447594Y285230D01*
X447607Y285252D01*
X447620Y285291D01*
X447637Y285343D01*
X447659Y285405D01*
X447672Y285483D01*
X447685Y285566D01*
X447690Y285658D01*
Y285662D01*
Y285676D01*
Y285702D01*
X447685Y285728D01*
Y285767D01*
X447681Y285807D01*
X447663Y285903D01*
X447642Y286008D01*
X447607Y286108D01*
X447559Y286204D01*
X447528Y286248D01*
X447493Y286287D01*
X447489Y286292D01*
X447484Y286296D01*
X447471Y286305D01*
X447454Y286318D01*
X447428Y286331D01*
X447401Y286349D01*
X447362Y286366D01*
X447323Y286384D01*
X447275Y286401D01*
X447218Y286414D01*
X447152Y286432D01*
X447082Y286445D01*
X447004Y286458D01*
X446921Y286467D01*
X446825Y286475D01*
X444976D01*
Y286877D01*
X446798D01*
X446838Y286873D01*
D02*
G37*
G36*
X447275Y288953D02*
X448000D01*
Y288582D01*
X447275D01*
Y287266D01*
X446934D01*
X444976Y288651D01*
Y288953D01*
X446934D01*
Y289364D01*
X447275D01*
Y288953D01*
D02*
G37*
%LPC*%
G36*
X339407Y191634D02*
X339381D01*
X339363Y191630D01*
X339319Y191626D01*
X339258Y191613D01*
X339193Y191591D01*
X339118Y191556D01*
X339048Y191512D01*
X338979Y191451D01*
X338970Y191442D01*
X338952Y191420D01*
X338922Y191381D01*
X338891Y191324D01*
X338861Y191259D01*
X338830Y191175D01*
X338812Y191084D01*
X338804Y190979D01*
Y190970D01*
Y190948D01*
X338808Y190909D01*
X338812Y190861D01*
X338821Y190804D01*
X338839Y190743D01*
X338856Y190677D01*
X338882Y190612D01*
X338887Y190603D01*
X338900Y190581D01*
X338917Y190551D01*
X338944Y190511D01*
X338974Y190472D01*
X339014Y190424D01*
X339057Y190385D01*
X339110Y190345D01*
X339118Y190341D01*
X339136Y190332D01*
X339166Y190315D01*
X339206Y190302D01*
X339249Y190284D01*
X339302Y190267D01*
X339359Y190258D01*
X339420Y190253D01*
X339442D01*
X339459Y190258D01*
X339503Y190262D01*
X339560Y190275D01*
X339621Y190302D01*
X339691Y190332D01*
X339761Y190380D01*
X339796Y190406D01*
X339826Y190441D01*
Y190446D01*
X339835Y190450D01*
X339852Y190476D01*
X339879Y190520D01*
X339914Y190577D01*
X339944Y190651D01*
X339970Y190738D01*
X339988Y190839D01*
X339997Y190957D01*
Y190961D01*
Y190970D01*
Y190988D01*
X339992Y191009D01*
Y191036D01*
X339988Y191066D01*
X339975Y191136D01*
X339957Y191215D01*
X339927Y191298D01*
X339883Y191376D01*
X339826Y191451D01*
X339818Y191460D01*
X339796Y191481D01*
X339761Y191508D01*
X339713Y191543D01*
X339651Y191578D01*
X339582Y191604D01*
X339498Y191626D01*
X339407Y191634D01*
D02*
G37*
G36*
X276328Y369530D02*
X276316D01*
X276288Y369527D01*
X276238Y369521D01*
X276183Y369508D01*
X276112Y369487D01*
X276038Y369456D01*
X275967Y369409D01*
X275895Y369351D01*
X275892Y369348D01*
X275886Y369341D01*
X275877Y369332D01*
X275868Y369317D01*
X275837Y369280D01*
X275806Y369230D01*
X275772Y369165D01*
X275744Y369094D01*
X275726Y369014D01*
X275722Y368924D01*
Y368912D01*
X275729Y368881D01*
X275738Y368835D01*
X275753Y368770D01*
X275781Y368699D01*
X275821Y368621D01*
X275880Y368538D01*
X275954Y368451D01*
X275957Y368448D01*
X275963Y368442D01*
X275976Y368430D01*
X275994Y368418D01*
X276016Y368396D01*
X276041Y368377D01*
X276099Y368337D01*
X276170Y368291D01*
X276254Y368251D01*
X276343Y368223D01*
X276436Y368211D01*
X276439Y368207D01*
X276449Y368211D01*
X276480D01*
X276526Y368214D01*
X276585Y368223D01*
X276649Y368245D01*
X276720Y368272D01*
X276792Y368312D01*
X276829Y368337D01*
X276859Y368368D01*
X276863Y368371D01*
X276869Y368377D01*
X276878Y368387D01*
X276887Y368402D01*
X276918Y368439D01*
X276946Y368492D01*
X276980Y368557D01*
X277005Y368637D01*
X277023Y368723D01*
Y368773D01*
Y368822D01*
X277020Y368825D01*
X277023Y368835D01*
X277020Y368850D01*
X277017Y368866D01*
X277008Y368918D01*
X276986Y368983D01*
X276958Y369060D01*
X276915Y369147D01*
X276853Y369233D01*
X276779Y369320D01*
X276776Y369323D01*
X276770Y369329D01*
X276761Y369338D01*
X276742Y369351D01*
X276724Y369369D01*
X276702Y369385D01*
X276646Y369422D01*
X276578Y369459D01*
X276504Y369496D01*
X276418Y369521D01*
X276328Y369530D01*
D02*
G37*
G36*
X243264Y299109D02*
X243255D01*
X243229Y299104D01*
X243189Y299100D01*
X243141Y299091D01*
X243085Y299074D01*
X243028Y299052D01*
X242967Y299017D01*
X242914Y298973D01*
X242910Y298969D01*
X242892Y298947D01*
X242870Y298917D01*
X242848Y298877D01*
X242822Y298825D01*
X242800Y298764D01*
X242783Y298694D01*
X242779Y298615D01*
Y298611D01*
Y298606D01*
X242783Y298580D01*
X242787Y298541D01*
X242796Y298488D01*
X242813Y298431D01*
X242835Y298375D01*
X242870Y298313D01*
X242914Y298261D01*
X242918Y298257D01*
X242940Y298239D01*
X242967Y298217D01*
X243006Y298191D01*
X243054Y298165D01*
X243111Y298143D01*
X243176Y298126D01*
X243246Y298121D01*
X243281D01*
X243320Y298130D01*
X243369Y298139D01*
X243421Y298156D01*
X243478Y298182D01*
X243535Y298217D01*
X243591Y298266D01*
X243596Y298270D01*
X243613Y298292D01*
X243635Y298322D01*
X243661Y298362D01*
X243688Y298414D01*
X243709Y298471D01*
X243727Y298541D01*
X243731Y298615D01*
Y298619D01*
Y298624D01*
Y298650D01*
X243723Y298689D01*
X243714Y298742D01*
X243696Y298799D01*
X243674Y298860D01*
X243639Y298917D01*
X243591Y298973D01*
X243587Y298978D01*
X243570Y298995D01*
X243539Y299017D01*
X243500Y299039D01*
X243452Y299065D01*
X243395Y299087D01*
X243334Y299104D01*
X243264Y299109D01*
D02*
G37*
G36*
X241870Y299231D02*
X241843D01*
X241813Y299227D01*
X241774Y299222D01*
X241725Y299214D01*
X241673Y299201D01*
X241620Y299183D01*
X241564Y299161D01*
X241559Y299157D01*
X241537Y299148D01*
X241511Y299131D01*
X241481Y299104D01*
X241441Y299074D01*
X241402Y299035D01*
X241367Y298991D01*
X241332Y298938D01*
X241328Y298930D01*
X241319Y298912D01*
X241306Y298882D01*
X241293Y298842D01*
X241280Y298794D01*
X241267Y298737D01*
X241258Y298676D01*
X241253Y298615D01*
Y298611D01*
Y298602D01*
Y298589D01*
X241258Y298571D01*
X241262Y298519D01*
X241275Y298458D01*
X241297Y298388D01*
X241323Y298313D01*
X241367Y298244D01*
X241424Y298174D01*
X241433Y298165D01*
X241455Y298148D01*
X241494Y298117D01*
X241542Y298086D01*
X241603Y298056D01*
X241677Y298025D01*
X241765Y298008D01*
X241857Y297999D01*
X241883D01*
X241900Y298003D01*
X241948Y298008D01*
X242014Y298021D01*
X242079Y298043D01*
X242154Y298073D01*
X242228Y298117D01*
X242298Y298178D01*
X242307Y298187D01*
X242324Y298209D01*
X242355Y298248D01*
X242390Y298300D01*
X242420Y298366D01*
X242451Y298445D01*
X242468Y298532D01*
X242477Y298628D01*
Y298633D01*
Y298641D01*
Y298654D01*
X242473Y298672D01*
X242468Y298720D01*
X242455Y298781D01*
X242433Y298851D01*
X242403Y298921D01*
X242359Y298995D01*
X242302Y299061D01*
X242294Y299069D01*
X242272Y299087D01*
X242232Y299113D01*
X242184Y299144D01*
X242119Y299179D01*
X242044Y299205D01*
X241961Y299222D01*
X241870Y299231D01*
D02*
G37*
G36*
X446934Y288582D02*
X445579D01*
X446934Y287629D01*
Y288582D01*
D02*
G37*
%LPD*%
D36*
X306076Y343276D02*
Y341943D01*
Y342610D01*
X309408D01*
X310075Y341943D01*
Y341277D01*
X309408Y340610D01*
X310075Y344609D02*
Y345942D01*
Y345275D01*
X306076D01*
X306743Y344609D01*
X321610Y235017D02*
X322120Y236249D01*
X321865Y235633D01*
X318786Y236908D01*
X318426Y237779D01*
X318681Y238395D01*
X319551Y238755D01*
X316385Y232853D02*
X317406Y235316D01*
X318848Y231833D01*
X319464Y231578D01*
X320335Y231939D01*
X320845Y233170D01*
X320484Y234041D01*
X278424Y298724D02*
Y300057D01*
Y299390D01*
X275092D01*
X274425Y300057D01*
Y300723D01*
X275092Y301390D01*
X278424Y294725D02*
Y297391D01*
X276425D01*
X277091Y296058D01*
Y295392D01*
X276425Y294725D01*
X275092D01*
X274425Y295392D01*
Y296725D01*
X275092Y297391D01*
X342500Y299500D02*
X346499D01*
Y297501D01*
X345832Y296834D01*
X344499D01*
X343833Y297501D01*
Y299500D01*
Y298167D02*
X342500Y296834D01*
Y295501D02*
Y294168D01*
Y294835D01*
X346499D01*
X345832Y295501D01*
X338500Y288000D02*
Y291999D01*
X340499D01*
X341166Y291332D01*
Y289999D01*
X340499Y289333D01*
X338500D01*
X339833D02*
X341166Y288000D01*
X345164D02*
X342499D01*
X345164Y290666D01*
Y291332D01*
X344498Y291999D01*
X343165D01*
X342499Y291332D01*
D69*
X342650Y272850D02*
G03*
X342650Y274850I0J1000D01*
G01*
X346350D02*
G03*
X346350Y272850I0J-1000D01*
G01*
X352650D02*
G03*
X352650Y274850I0J1000D01*
G01*
X356350D02*
G03*
X356350Y272850I0J-1000D01*
G01*
X332650Y272850D02*
G03*
X332650Y274850I0J1000D01*
G01*
X336350Y274850D02*
G03*
X336350Y272850I0J-1000D01*
G01*
X299643Y279252D02*
G03*
X300437Y280038I4J790D01*
G01*
X292563Y280039D02*
G03*
X293348Y279252I786J-1D01*
G01*
X300437Y259962D02*
G03*
X299643Y260748I-790J-4D01*
G01*
X293348Y260748D02*
G03*
X292563Y259961I1J-786D01*
G01*
X303390Y281024D02*
G03*
X302602Y281811I-787J0D01*
G01*
X302602Y258189D02*
G03*
X303390Y258976I0J787D01*
G01*
X289610Y258976D02*
G03*
X290398Y258189I787J0D01*
G01*
X290398Y281811D02*
G03*
X289610Y281024I0J-787D01*
G01*
X344500Y375626D02*
G03*
X344500Y375626I0J7874D01*
G01*
X351962Y375358D02*
G03*
X351962Y375358I0J420D01*
G01*
X402572Y351572D02*
G03*
X402572Y351572I5568J5568D01*
G01*
X407658Y346106D02*
G03*
X407658Y346106I297J297D01*
G01*
X426626Y293500D02*
G03*
X426626Y293500I7874J0D01*
G01*
X426358Y286038D02*
G03*
X426358Y286038I420J0D01*
G01*
X402432Y235568D02*
G03*
X402432Y235568I5568J-5568D01*
G01*
X396967Y230481D02*
G03*
X396967Y230481I297J-297D01*
G01*
X344500Y211374D02*
G03*
X344500Y211374I0J-7874D01*
G01*
X337038Y211642D02*
G03*
X337038Y211642I0J-420D01*
G01*
X287068Y235568D02*
G03*
X287068Y235568I-5568J-5568D01*
G01*
X281981Y241034D02*
G03*
X281981Y241034I-297J-297D01*
G01*
X262374Y293500D02*
G03*
X262374Y293500I-7874J0D01*
G01*
X262642Y300962D02*
G03*
X262642Y300962I-420J0D01*
G01*
X286428Y351572D02*
G03*
X286428Y351572I-5568J5568D01*
G01*
X291894Y356659D02*
G03*
X291894Y356659I-297J297D01*
G01*
X305146Y272398D02*
Y284602D01*
X310854Y272398D02*
Y284602D01*
X305146Y272398D02*
X310854D01*
X305146Y284602D02*
X310854D01*
X312146D02*
X312146Y272398D01*
X317854Y272398D02*
Y284602D01*
X312146Y272398D02*
X317854Y272398D01*
X312146Y284602D02*
X317854Y284602D01*
X311500Y342000D02*
X313500Y341460D01*
X311500Y352000D02*
Y352500D01*
Y342000D02*
X311500Y342500D01*
X303500Y353540D02*
X305500Y353000D01*
X303500Y353540D02*
X303500Y362500D01*
X311500Y352500D02*
Y353000D01*
Y343000D02*
X313500Y343540D01*
X305500Y342500D02*
Y343000D01*
X303500Y332500D02*
Y341460D01*
X313500Y332500D02*
Y341460D01*
X303500Y332500D02*
X313500Y332500D01*
Y343540D02*
Y351460D01*
X311500Y343000D02*
X311500Y342500D01*
X303500Y351460D02*
X305500Y352000D01*
X303500Y362500D02*
X313500Y362500D01*
X311500Y352000D02*
X313500Y351460D01*
X303500Y341460D02*
X305500Y342000D01*
X311500Y353000D02*
X313500Y353540D01*
X305500Y352500D02*
X305500Y352000D01*
X303500Y343540D02*
X305500Y343000D01*
X313500Y353540D02*
Y362500D01*
X303500Y343540D02*
Y351460D01*
X305500Y342000D02*
Y342500D01*
X305500Y352500D02*
X305500Y353000D01*
X271000Y300540D02*
X273000Y300000D01*
Y289500D02*
Y290000D01*
Y299500D02*
Y300000D01*
X279000Y289000D02*
X281000Y288460D01*
Y279500D02*
Y288460D01*
X273000Y289000D02*
Y289500D01*
X271000Y298460D02*
X273000Y299000D01*
X279000D02*
Y299500D01*
X281000Y300540D02*
Y309500D01*
X271000Y300540D02*
Y309500D01*
X281000D01*
X271000Y290540D02*
Y298460D01*
X273000Y299000D02*
Y299500D01*
X279000Y290000D02*
X281000Y290540D01*
X271000Y279500D02*
X281000D01*
X271000Y290540D02*
X273000Y290000D01*
X279000Y300000D02*
X281000Y300540D01*
X271000Y288460D02*
X273000Y289000D01*
X279000Y289500D02*
Y290000D01*
Y299000D02*
X281000Y298460D01*
X271000Y279500D02*
Y288460D01*
X281000Y290540D02*
Y298460D01*
X279000Y299500D02*
Y300000D01*
Y289000D02*
Y289500D01*
X319894Y326965D02*
X369106D01*
X319894Y318697D02*
Y326965D01*
X369106Y318697D02*
Y326965D01*
Y268303D02*
Y318697D01*
X319894Y268303D02*
Y318697D01*
Y268303D02*
X369106D01*
X319894Y318697D02*
X369106D01*
X347000Y274850D02*
Y275850D01*
X325650Y271150D02*
X328250Y271150D01*
X332000Y275850D02*
X337000D01*
X356350Y274850D02*
X357000Y274850D01*
X332000D02*
Y275850D01*
X363350Y271150D02*
Y308850D01*
X328250Y272850D02*
X332650D01*
X357000Y274850D02*
X357000Y275850D01*
X328250Y272850D02*
X328250Y271150D01*
X337000Y274850D02*
Y275850D01*
X346350Y274850D02*
X347000D01*
X325650Y271150D02*
Y308850D01*
X360750Y271150D02*
X363350Y271150D01*
X352000Y274850D02*
Y275850D01*
X342000D02*
X347000D01*
X336350Y272850D02*
X342650D01*
X346350D02*
X352650D01*
X352000Y274850D02*
X352650Y274850D01*
X325650Y308850D02*
X363350D01*
X356350Y272850D02*
X360750D01*
X360750Y271150D01*
X336350Y274850D02*
X337000Y274850D01*
X342000Y274850D02*
X342650Y274850D01*
X332000D02*
X332650D01*
X352000Y275850D02*
X357000D01*
X342000Y274850D02*
X342000Y275850D01*
X290398Y281811D02*
X302602D01*
X290398Y258189D02*
X302602Y258189D01*
X293348Y279252D02*
X299643D01*
X303390Y281024D02*
X303390Y258976D01*
X289610Y281024D02*
X289610Y258976D01*
X294531Y257008D02*
X294531Y258189D01*
X298468Y281811D02*
X298468Y282992D01*
Y254252D02*
X298468Y255433D01*
X294531Y284567D02*
Y285748D01*
X300437Y281811D02*
X300437Y280038D01*
X300437Y258189D02*
X300437Y259962D01*
X298468Y284567D02*
X298468Y285748D01*
X298468Y256221D02*
Y257008D01*
Y256221D02*
X298468Y255433D01*
X292563Y258189D02*
Y259961D01*
X294531Y254252D02*
X298468Y254252D01*
X294531Y283780D02*
X294531Y284567D01*
X298468Y257008D02*
X298468Y258189D01*
X294531Y283780D02*
X294531Y282992D01*
X294531Y281811D01*
X294531Y257008D02*
X294531Y256221D01*
Y254252D02*
Y255433D01*
X298468Y284567D02*
X298468Y283780D01*
X294531Y285748D02*
X298468Y285748D01*
X293348Y260748D02*
X299643Y260748D01*
X294531Y255433D02*
Y256221D01*
X292563Y280039D02*
Y281811D01*
X298468Y282992D02*
Y283780D01*
X334658Y393342D02*
X354343D01*
X354343Y373657D02*
X354343Y393342D01*
X334658Y373657D02*
X354343D01*
X333870Y388224D02*
X334658D01*
X334658Y373657D02*
Y393342D01*
X333870Y391768D02*
X334658D01*
X355130Y388224D02*
X355130Y391768D01*
X333870Y375232D02*
X334658D01*
X333870Y378776D02*
X334658Y378776D01*
X333870Y388224D02*
X333870Y391768D01*
X354343Y378776D02*
X355130D01*
X355130Y375232D02*
X355130Y378776D01*
X354343Y391768D02*
X355130Y391768D01*
X333870Y375232D02*
Y378776D01*
X354343Y375232D02*
X355130Y375232D01*
X354343Y388224D02*
X355130Y388224D01*
X408140Y371059D02*
X422059Y357140D01*
X408140Y343220D02*
X422059Y357140D01*
X394220D02*
X408140Y343220D01*
X403964Y367997D02*
X404521Y367440D01*
X394220Y357140D02*
X408140Y371059D01*
X406469Y370502D02*
X407026Y369946D01*
X418997Y352964D02*
X421502Y355469D01*
X394777Y358810D02*
X395334Y358253D01*
X397283Y361315D02*
X397839Y360759D01*
X403964Y367997D02*
X406469Y370502D01*
X411759Y346839D02*
X412315Y346283D01*
X409810Y343777D02*
X412315Y346283D01*
X420946Y356026D02*
X421502Y355469D01*
X394777Y358810D02*
X397283Y361315D01*
X409253Y344334D02*
X409810Y343777D01*
X418440Y353521D02*
X418997Y352964D01*
X444343Y283658D02*
Y303343D01*
X424657Y283658D02*
X444343Y283658D01*
X424657Y283658D02*
Y303343D01*
X439224Y303343D02*
Y304130D01*
X424657Y303343D02*
X444343D01*
X442768Y303343D02*
Y304130D01*
X439224Y282870D02*
X442768Y282870D01*
X426232Y303343D02*
Y304130D01*
X429776Y303343D02*
X429776Y304130D01*
X439224Y304130D02*
X442768Y304130D01*
X429776Y282870D02*
Y283658D01*
X426232Y282870D02*
X429776Y282870D01*
X442768Y283658D02*
X442768Y282870D01*
X426232Y304130D02*
X429776D01*
X426232Y283658D02*
X426232Y282870D01*
X439224Y282870D02*
X439224Y283658D01*
X408000Y216081D02*
X421919Y230000D01*
X394081Y230000D02*
X408000Y216081D01*
X394081Y230000D02*
X408000Y243919D01*
X418300Y233619D02*
X418857Y234176D01*
X408000Y243919D02*
X421919Y230000D01*
X420806Y231114D02*
X421363Y231670D01*
X403824Y219143D02*
X406330Y216637D01*
X409114Y242806D02*
X409670Y243363D01*
X411619Y240300D02*
X412176Y240857D01*
X418857Y234176D02*
X421363Y231670D01*
X397143Y225824D02*
X397700Y226381D01*
X394637Y228330D02*
X397143Y225824D01*
X406330Y216637D02*
X406886Y217194D01*
X409670Y243363D02*
X412176Y240857D01*
X394637Y228330D02*
X395194Y228887D01*
X403824Y219143D02*
X404381Y219700D01*
X334658Y193658D02*
X354343D01*
X334658D02*
X334658Y213342D01*
X354343D01*
X354343Y198776D02*
X355130D01*
X354343Y193658D02*
Y213342D01*
X354343Y195232D02*
X355130D01*
X333870Y195232D02*
X333870Y198776D01*
X354343Y211768D02*
X355130D01*
X354343Y208224D02*
X355130Y208224D01*
Y195232D02*
X355130Y198776D01*
X333870Y208224D02*
X334658D01*
X333870D02*
X333870Y211768D01*
Y195232D02*
X334658Y195232D01*
X355130Y208224D02*
Y211768D01*
X333870Y211768D02*
X334658Y211768D01*
X333870Y198776D02*
X334658Y198776D01*
X267581Y230000D02*
X281500Y216081D01*
X267581Y230000D02*
X281500Y243919D01*
X295419Y230000D01*
X285119Y219700D02*
X285676Y219143D01*
X281500Y216081D02*
X295419Y230000D01*
X282614Y217194D02*
X283170Y216637D01*
X268137Y231670D02*
X270643Y234176D01*
X294306Y228887D02*
X294863Y228330D01*
X291800Y226381D02*
X292357Y225824D01*
X283170Y216637D02*
X285676Y219143D01*
X277324Y240857D02*
X277881Y240300D01*
X277324Y240857D02*
X279830Y243363D01*
X268137Y231670D02*
X268694Y231114D01*
X292357Y225824D02*
X294863Y228330D01*
X279830Y243363D02*
X280386Y242806D01*
X270643Y234176D02*
X271200Y233619D01*
X244657Y283658D02*
Y303343D01*
X264342Y303343D01*
Y283658D02*
Y303343D01*
X249776Y282870D02*
Y283658D01*
X244657Y283658D02*
X264342D01*
X246232Y282870D02*
Y283658D01*
X246232Y304130D02*
X249776Y304130D01*
X262768Y282870D02*
Y283658D01*
X259224Y282870D02*
X259224Y283658D01*
X246232Y282870D02*
X249776Y282870D01*
X259224Y303343D02*
Y304130D01*
X262768Y304130D01*
X246232D02*
X246232Y303343D01*
X259224Y282870D02*
X262768D01*
X262768Y304130D02*
X262768Y303343D01*
X249776Y303343D02*
X249776Y304130D01*
X266941Y357140D02*
X280860Y371059D01*
X294780Y357140D01*
X280860Y343220D02*
X294780Y357140D01*
X270003Y352964D02*
X270560Y353521D01*
X266941Y357140D02*
X280860Y343220D01*
X267498Y355469D02*
X268055Y356026D01*
X282531Y370502D02*
X285036Y367997D01*
X279190Y343777D02*
X279747Y344334D01*
X276685Y346283D02*
X277241Y346839D01*
X267498Y355469D02*
X270003Y352964D01*
X291161Y360759D02*
X291718Y361315D01*
X294223Y358810D01*
X281974Y369946D02*
X282531Y370502D01*
X276685Y346283D02*
X279190Y343777D01*
X293666Y358253D02*
X294223Y358810D01*
X284479Y367440D02*
X285036Y367997D01*
D70*
X299685Y295204D02*
G03*
X299685Y299904I0J2350D01*
G01*
X305185Y311649D02*
G03*
X304689Y312146I-500J-4D01*
G01*
X299685Y299904D02*
G03*
X299685Y295204I0J-2350D01*
G01*
X290327Y312146D02*
G03*
X289831Y311649I4J-500D01*
G01*
X304689Y292854D02*
G03*
X305185Y293351I-4J500D01*
G01*
X289831D02*
G03*
X290327Y292854I500J4D01*
G01*
X358647Y254397D02*
G03*
X358349Y254693I-300J-4D01*
G01*
X352646D02*
G03*
X352347Y254397I2J-300D01*
G01*
X358349Y243193D02*
G03*
X358647Y243489I-2J300D01*
G01*
X352347Y243489D02*
G03*
X352646Y243193I300J4D01*
G01*
X285570Y380029D02*
X287060Y378540D01*
X286225Y377704D02*
X287060Y378540D01*
X286225Y377704D02*
X289844Y374085D01*
X286684Y381142D02*
X288173Y379653D01*
X294813Y376076D02*
X295926Y377189D01*
X290860Y385318D02*
X291973Y386432D01*
X289844Y374085D02*
X293323Y377565D01*
X294813Y376076D01*
X290860Y385318D02*
X292349Y383829D01*
X288173Y379653D02*
X292349Y383829D01*
X293463Y384943D02*
X294298Y385778D01*
X294437Y378679D02*
X297917Y382159D01*
X285570Y380029D02*
X286684Y381142D01*
X294298Y385778D02*
X297917Y382159D01*
X294437Y378679D02*
X295926Y377189D01*
X291973Y386432D02*
X293463Y384943D01*
X328258Y241967D02*
X329011Y243785D01*
X307187Y252825D02*
X318099Y248305D01*
X314278Y192785D02*
X316538Y198241D01*
X318228Y186888D02*
X319734Y190525D01*
X286998Y204085D02*
X319734Y190525D01*
X317346Y246486D02*
X318099Y248305D01*
X338567Y235992D02*
X339923Y239265D01*
X285492Y200448D02*
X286998Y204085D01*
X307286Y248949D02*
X337112Y236594D01*
X336232Y230354D02*
X337687Y229751D01*
X319734Y190525D02*
X321994Y195981D01*
X305831Y249552D02*
X307286Y248949D01*
X285492Y200448D02*
X318228Y186888D01*
X305831Y249552D02*
X307187Y252825D01*
X322046Y200221D02*
X337112Y236594D01*
X329011Y243785D02*
X339923Y239265D01*
X321994Y195981D02*
X323501Y199619D01*
X338567Y235992D01*
X333920Y220658D02*
X337687Y229751D01*
X327655Y240512D02*
X328258Y241967D01*
X289258Y209541D02*
X290765Y213178D01*
X305831Y249552D01*
X332465Y221261D02*
X333920Y220658D01*
X292454Y201825D02*
X294714Y207281D01*
X337112Y236594D02*
X338567Y235992D01*
X317346Y246486D02*
X328258Y241967D01*
X289258Y209541D02*
X321994Y195981D01*
X292220Y212576D02*
X307286Y248949D01*
X316743Y245032D02*
X317346Y246486D01*
X290765Y213178D02*
X323501Y199619D01*
X286998Y204085D02*
X289258Y209541D01*
X427466Y237609D02*
X442773Y274564D01*
X433534Y278391D02*
X442773Y274564D01*
X418227Y241436D02*
X433534Y278391D01*
X418227Y241436D02*
X427466Y237609D01*
X246227Y312436D02*
X261534Y349391D01*
X246227Y312436D02*
X255466Y308609D01*
X270773Y345564D01*
X261534Y349391D02*
X270773Y345564D01*
X290327Y312146D02*
X290331D01*
X304685Y312146D02*
X304689Y312146D01*
X298807D02*
X304685Y312146D01*
X298217Y312146D02*
X298807D01*
X304685Y292854D02*
X304689D01*
X296799Y312146D02*
X298217D01*
X290331D02*
X296209D01*
X305185Y311646D02*
Y311649D01*
X290331Y292854D02*
X296209Y292854D01*
X289831Y311649D02*
X289831Y311646D01*
X296799Y292854D02*
X298217Y292854D01*
X298807Y292854D02*
X304685D01*
X289831Y293354D02*
Y311646D01*
X296209Y292854D02*
X296799Y292854D01*
X305185Y293354D02*
X305185Y293351D01*
X289831Y293354D02*
X289831Y293351D01*
X305185Y293354D02*
X305185Y311646D01*
X298217Y292854D02*
X298807Y292854D01*
X296209Y312146D02*
X296799D01*
X290327Y292854D02*
X290331D01*
X309319Y309252D02*
X309319Y310748D01*
X307694D02*
X309319D01*
X306851Y309252D02*
X307694D01*
X305355Y310748D02*
X306851D01*
X305355Y309252D02*
X306851D01*
X305185Y310748D02*
X305355Y310748D01*
X307694Y309252D02*
X309319Y309252D01*
X306851Y310748D02*
X307694D01*
X305185Y309252D02*
X305355D01*
X305185D02*
Y310748D01*
X306851Y309252D02*
X306851Y310748D01*
X309319Y305748D02*
X309319Y304252D01*
X307694Y305748D02*
X309319D01*
X306851Y304252D02*
X307694Y304252D01*
X305355Y305748D02*
X306851Y305748D01*
X305355Y304252D02*
X306851Y304252D01*
X305185Y305748D02*
X305355Y305748D01*
X307694Y304252D02*
X309319Y304252D01*
X306851Y305748D02*
X307694Y305748D01*
X305185Y304252D02*
X305355Y304252D01*
X305185Y305748D02*
X305185Y304252D01*
X306851D02*
Y305748D01*
X309319Y299252D02*
Y300748D01*
X307694Y300748D02*
X309319Y300748D01*
X306851Y299252D02*
X307694D01*
X305355Y300748D02*
X306851D01*
X305355Y299252D02*
X306851Y299252D01*
X305185Y300748D02*
X305355D01*
X307694Y299252D02*
X309319D01*
X306851Y300748D02*
X307694Y300748D01*
X305185Y299252D02*
X305355Y299252D01*
X305185Y299252D02*
Y300748D01*
X306851Y299252D02*
Y300748D01*
X309319Y295748D02*
X309319Y294252D01*
X307694Y295748D02*
X309319Y295748D01*
X306851Y294252D02*
X307694D01*
X305355Y295748D02*
X306851D01*
X305355Y294252D02*
X306851Y294252D01*
X305185Y295748D02*
X305355D01*
X307694Y294252D02*
X309319D01*
X306851Y295748D02*
X307694D01*
X305185Y294252D02*
X305355Y294252D01*
X305185Y294252D02*
Y295748D01*
X306851Y294252D02*
Y295748D01*
X285697Y309252D02*
Y310748D01*
Y309252D02*
X287322D01*
Y310748D02*
X288164D01*
Y309252D02*
X289660D01*
X288164Y310748D02*
X289660Y310748D01*
X289660Y309252D02*
X289831D01*
X285697Y310748D02*
X287322D01*
Y309252D02*
X288164D01*
X289660Y310748D02*
X289831Y310748D01*
Y309252D02*
Y310748D01*
X288164Y309252D02*
Y310748D01*
X285697Y305748D02*
X285697Y304252D01*
X287322Y304252D01*
Y305748D02*
X288164D01*
Y304252D02*
X289660D01*
X288164Y305748D02*
X289660D01*
Y304252D02*
X289831D01*
X285697Y305748D02*
X287322D01*
Y304252D02*
X288164Y304252D01*
X289660Y305748D02*
X289831D01*
X289831Y304252D01*
X288164D02*
Y305748D01*
X285697Y299252D02*
Y300748D01*
Y299252D02*
X287322D01*
Y300748D02*
X288164Y300748D01*
Y299252D02*
X289660D01*
X288164Y300748D02*
X289660Y300748D01*
X289660Y299252D02*
X289831D01*
X285697Y300748D02*
X287322Y300748D01*
Y299252D02*
X288164D01*
X289660Y300748D02*
X289831D01*
X289831Y299252D01*
X288164D02*
Y300748D01*
X285697Y295748D02*
X285697Y294252D01*
X287322D01*
Y295748D02*
X288164D01*
Y294252D02*
X289660Y294252D01*
X288164Y295748D02*
X289660D01*
Y294252D02*
X289831D01*
X285697Y295748D02*
X287322Y295748D01*
Y294252D02*
X288164Y294252D01*
X289660Y295748D02*
X289831Y295748D01*
Y294252D02*
Y295748D01*
X288164Y294252D02*
Y295748D01*
X296209Y292854D02*
X296799Y292854D01*
X298217Y292854D02*
X298807Y292854D01*
X298217Y312146D02*
X298807D01*
X296209D02*
X296799D01*
X360215Y253480D02*
X361098Y253480D01*
Y251905D02*
Y253480D01*
X358647Y251905D02*
Y253480D01*
X358782Y253480D01*
X358647Y251905D02*
X358782D01*
X359780D01*
X359844Y253480D02*
X360215D01*
X359780D02*
X359844D01*
X359844Y251905D02*
X360215Y251905D01*
X359780D02*
X359844Y251905D01*
X360215Y251905D02*
X361098D01*
X358782Y253480D02*
X359780D01*
X360215Y245980D02*
X361098D01*
X361098Y244405D02*
X361098Y245980D01*
X358647D02*
X358647Y244405D01*
X358647Y245980D02*
X358782Y245980D01*
X358647Y244405D02*
X358782Y244405D01*
X359780Y244405D01*
X359844Y245980D02*
X360215Y245980D01*
X359780D02*
X359844Y245980D01*
Y244405D02*
X360215D01*
X359780D02*
X359844D01*
X360215D02*
X361098D01*
X358782Y245980D02*
X359780Y245980D01*
X349898Y251905D02*
X350780Y251905D01*
X349898Y251905D02*
X349898Y253480D01*
X352347Y251905D02*
Y253480D01*
X352213Y251905D02*
X352347Y251905D01*
X352213Y253480D02*
X352347Y253480D01*
X351215Y253480D02*
X352213Y253480D01*
X350780Y251905D02*
X351151Y251905D01*
X351215Y251905D01*
X350780Y253480D02*
X351151D01*
X351215Y253480D01*
X349898Y253480D02*
X350780D01*
X351215Y251905D02*
X352213D01*
X349898Y248155D02*
X350780Y248155D01*
X349898Y248155D02*
Y249730D01*
X352347Y248155D02*
Y249730D01*
X352213Y248155D02*
X352347Y248155D01*
X352213Y249730D02*
X352347Y249730D01*
X351215D02*
X352213Y249730D01*
X350780Y248155D02*
X351151Y248155D01*
X351215Y248155D01*
X350780Y249730D02*
X351151Y249730D01*
X351215Y249730D01*
X349898D02*
X350780Y249730D01*
X351215Y248155D02*
X352213D01*
X349898Y244405D02*
X350780Y244405D01*
X349898Y245980D02*
X349898Y244405D01*
X352347Y245980D02*
X352347Y244405D01*
X352213Y244405D02*
X352347Y244405D01*
X352213Y245980D02*
X352347D01*
X351215Y245980D02*
X352213Y245980D01*
X350780Y244405D02*
X351151Y244405D01*
X351215Y244405D01*
X350780Y245980D02*
X351151Y245980D01*
X351215Y245980D01*
X349898Y245980D02*
X350780Y245980D01*
X351215Y244405D02*
X352213Y244405D01*
X358647Y243493D02*
Y254393D01*
X352647Y254693D02*
X358348D01*
X352347Y243493D02*
X352347Y254393D01*
X352646Y243193D02*
X352647Y243193D01*
X358348Y254693D02*
X358349Y254693D01*
X352647Y243193D02*
X358348D01*
X358349D01*
X352646Y254693D02*
X352647D01*
X358647Y243489D02*
X358647Y243493D01*
X352347Y254393D02*
Y254397D01*
X352347Y243493D02*
X352347Y243489D01*
X358647Y254393D02*
Y254397D01*
D71*
X296690Y382130D02*
X294923Y383897D01*
X294040Y383014D01*
Y382425D01*
X295218Y381247D01*
X295807D01*
X296690Y382130D01*
X293156D02*
X292567Y381541D01*
X292861Y381836D01*
X294629Y380068D01*
Y380658D01*
X303898Y301462D02*
Y304378D01*
X303314Y304961D01*
X302148D01*
X301565Y304378D01*
Y301462D01*
X300399Y304961D02*
X299233D01*
X299816D01*
Y301462D01*
X300399Y302045D01*
X297483D02*
X296900Y301462D01*
X295734D01*
X295150Y302045D01*
Y304378D01*
X295734Y304961D01*
X296900D01*
X297483Y304378D01*
Y302045D01*
D72*
X306501Y283998D02*
X309500D01*
Y282499D01*
X309000Y281999D01*
X308000D01*
X307500Y282499D01*
Y283998D01*
Y282998D02*
X306501Y281999D01*
X309000Y280999D02*
X309500Y280499D01*
Y279500D01*
X309000Y279000D01*
X308500D01*
X308000Y279500D01*
Y279999D01*
Y279500D01*
X307500Y279000D01*
X307000D01*
X306501Y279500D01*
Y280499D01*
X307000Y280999D01*
X316000Y281999D02*
X316499Y282499D01*
Y283498D01*
X316000Y283998D01*
X314000D01*
X313500Y283498D01*
Y282499D01*
X314000Y281999D01*
X313500Y280999D02*
Y279999D01*
Y280499D01*
X316499D01*
X316000Y280999D01*
X427378Y255684D02*
X426867Y254453D01*
X427122Y255069D01*
X430201Y253794D01*
X430562Y252923D01*
X430307Y252307D01*
X429436Y251946D01*
X428503Y256661D02*
X428143Y257532D01*
X428653Y258763D01*
X429523Y259124D01*
X430139Y258869D01*
X430500Y257998D01*
X430245Y257382D01*
X430500Y257998D01*
X431371Y258359D01*
X431986Y258104D01*
X432347Y257233D01*
X431837Y256001D01*
X430966Y255641D01*
X261623Y331315D02*
X262133Y332547D01*
X261878Y331931D01*
X258799Y333206D01*
X258438Y334077D01*
X258693Y334693D01*
X259564Y335054D01*
X256653Y329767D02*
X260347Y328237D01*
X259265Y330849D01*
X258245Y328386D01*
D73*
X295057Y264028D02*
X294532Y263503D01*
Y262454D01*
X295057Y261929D01*
X295582D01*
X296107Y262454D01*
Y263503D01*
X296632Y264028D01*
X297156D01*
X297681Y263503D01*
Y262454D01*
X297156Y261929D01*
X294532Y265078D02*
X297681D01*
X296632Y266127D01*
X297681Y267177D01*
X294532D01*
X297681Y268226D02*
Y269276D01*
Y268751D01*
X294532D01*
X295057Y268226D01*
D74*
X356515Y252740D02*
X354849D01*
X354516Y252407D01*
Y251741D01*
X354849Y251407D01*
X356515D01*
X354516Y250741D02*
Y250074D01*
Y250408D01*
X356515D01*
X356182Y250741D01*
M02*
