G04 Layer_Color=65535*
%FSLAX25Y25*%
%MOIN*%
G70*
G01*
G75*
%ADD34C,0.00984*%
%ADD35C,0.00787*%
%ADD36C,0.00700*%
G04:AMPARAMS|DCode=37|XSize=32.48mil|YSize=7.87mil|CornerRadius=0mil|HoleSize=0mil|Usage=FLASHONLY|Rotation=315.000|XOffset=0mil|YOffset=0mil|HoleType=Round|Shape=Rectangle|*
%AMROTATEDRECTD37*
4,1,4,-0.01427,0.00870,-0.00870,0.01427,0.01427,-0.00870,0.00870,-0.01427,-0.01427,0.00870,0.0*
%
%ADD37ROTATEDRECTD37*%

%ADD38R,0.01890X0.03937*%
G04:AMPARAMS|DCode=39|XSize=52mil|YSize=15mil|CornerRadius=0mil|HoleSize=0mil|Usage=FLASHONLY|Rotation=67.500|XOffset=0mil|YOffset=0mil|HoleType=Round|Shape=Rectangle|*
%AMROTATEDRECTD39*
4,1,4,-0.00302,-0.02689,-0.01688,-0.02115,0.00302,0.02689,0.01688,0.02115,-0.00302,-0.02689,0.0*
%
%ADD39ROTATEDRECTD39*%

%ADD40R,0.01890X0.03937*%
%ADD41R,0.04331X0.01229*%
%ADD42R,0.01968X0.00787*%
G04:AMPARAMS|DCode=43|XSize=7.87mil|YSize=19.68mil|CornerRadius=0mil|HoleSize=0mil|Usage=FLASHONLY|Rotation=225.000|XOffset=0mil|YOffset=0mil|HoleType=Round|Shape=Rectangle|*
%AMROTATEDRECTD43*
4,1,4,-0.00418,0.00974,0.00974,-0.00418,0.00418,-0.00974,-0.00974,0.00418,-0.00418,0.00974,0.0*
%
%ADD43ROTATEDRECTD43*%

%ADD44R,0.00787X0.01968*%
G04:AMPARAMS|DCode=45|XSize=7.87mil|YSize=19.68mil|CornerRadius=0mil|HoleSize=0mil|Usage=FLASHONLY|Rotation=135.000|XOffset=0mil|YOffset=0mil|HoleType=Round|Shape=Rectangle|*
%AMROTATEDRECTD45*
4,1,4,0.00974,0.00418,-0.00418,-0.00974,-0.00974,-0.00418,0.00418,0.00974,0.00974,0.00418,0.0*
%
%ADD45ROTATEDRECTD45*%

D34*
X366252Y332575D02*
G03*
X366252Y332575I-492J0D01*
G01*
D35*
X336350Y274850D02*
G03*
X336350Y272850I0J-1000D01*
G01*
X332650Y272850D02*
G03*
X332650Y274850I0J1000D01*
G01*
X356350Y274850D02*
G03*
X356350Y272850I0J-1000D01*
G01*
X352650D02*
G03*
X352650Y274850I0J1000D01*
G01*
X346350D02*
G03*
X346350Y272850I0J-1000D01*
G01*
X342650D02*
G03*
X342650Y274850I0J1000D01*
G01*
X302602Y258189D02*
G03*
X303390Y258976I0J787D01*
G01*
X290398Y281811D02*
G03*
X289610Y281024I0J-787D01*
G01*
X289610Y258976D02*
G03*
X290398Y258189I787J0D01*
G01*
X303390Y281024D02*
G03*
X302602Y281811I-787J0D01*
G01*
X296733Y383619D02*
X298125Y382227D01*
X295897Y380000D02*
X298125Y382227D01*
X288381Y375267D02*
X289773Y373875D01*
X292000Y376103D01*
X305500Y352500D02*
X305500Y353000D01*
Y342000D02*
Y342500D01*
X303500Y343540D02*
Y351460D01*
X313500Y353540D02*
Y362500D01*
X303500Y343540D02*
X305500Y343000D01*
X305500Y352500D02*
X305500Y352000D01*
X311500Y353000D02*
X313500Y353540D01*
X303500Y341460D02*
X305500Y342000D01*
X311500Y352000D02*
X313500Y351460D01*
X303500Y362500D02*
X313500Y362500D01*
X303500Y351460D02*
X305500Y352000D01*
X311500Y343000D02*
X311500Y342500D01*
X313500Y343540D02*
Y351460D01*
X303500Y332500D02*
X313500Y332500D01*
Y341460D01*
X303500Y332500D02*
Y341460D01*
X305500Y342500D02*
Y343000D01*
X311500D02*
X313500Y343540D01*
X311500Y352500D02*
Y353000D01*
X303500Y353540D02*
X303500Y362500D01*
X303500Y353540D02*
X305500Y353000D01*
X311500Y342000D02*
X311500Y342500D01*
X311500Y352000D02*
Y352500D01*
Y342000D02*
X313500Y341460D01*
X279000Y289000D02*
Y289500D01*
Y299500D02*
Y300000D01*
X281000Y290540D02*
Y298460D01*
X271000Y279500D02*
Y288460D01*
X279000Y299000D02*
X281000Y298460D01*
X279000Y289500D02*
Y290000D01*
X271000Y288460D02*
X273000Y289000D01*
X279000Y300000D02*
X281000Y300540D01*
X271000Y290540D02*
X273000Y290000D01*
X271000Y279500D02*
X281000D01*
X279000Y290000D02*
X281000Y290540D01*
X273000Y299000D02*
Y299500D01*
X271000Y290540D02*
Y298460D01*
Y309500D02*
X281000D01*
X271000Y300540D02*
Y309500D01*
X281000Y300540D02*
Y309500D01*
X279000Y299000D02*
Y299500D01*
X271000Y298460D02*
X273000Y299000D01*
Y289000D02*
Y289500D01*
X281000Y279500D02*
Y288460D01*
X279000Y289000D02*
X281000Y288460D01*
X273000Y299500D02*
Y300000D01*
Y289500D02*
Y290000D01*
X271000Y300540D02*
X273000Y300000D01*
X319894Y268303D02*
X369106D01*
X319894D02*
Y285626D01*
X369106Y268303D02*
Y285626D01*
Y301374D02*
Y326965D01*
X319894Y301374D02*
Y326965D01*
X369106D01*
X342000Y274850D02*
X342000Y275850D01*
X352000D02*
X357000D01*
X332000Y274850D02*
X332650D01*
X342000Y274850D02*
X342650Y274850D01*
X336350Y274850D02*
X337000Y274850D01*
X360750Y272850D02*
X360750Y271150D01*
X356350Y272850D02*
X360750D01*
X325650Y308850D02*
X363350D01*
X352000Y274850D02*
X352650Y274850D01*
X346350Y272850D02*
X352650D01*
X336350D02*
X342650D01*
X342000Y275850D02*
X347000D01*
X352000Y274850D02*
Y275850D01*
X360750Y271150D02*
X363350Y271150D01*
X325650D02*
Y308850D01*
X346350Y274850D02*
X347000D01*
X337000Y274850D02*
Y275850D01*
X328250Y272850D02*
X328250Y271150D01*
X357000Y274850D02*
X357000Y275850D01*
X328250Y272850D02*
X332650D01*
X363350Y271150D02*
Y308850D01*
X332000Y274850D02*
Y275850D01*
X356350Y274850D02*
X357000Y274850D01*
X332000Y275850D02*
X337000D01*
X325650Y271150D02*
X328250Y271150D01*
X347000Y274850D02*
Y275850D01*
X290398Y258189D02*
X290988D01*
X303390Y281024D02*
X303390Y258976D01*
X289610Y281024D02*
X289610Y258976D01*
X290398Y281811D02*
X290988Y281811D01*
X302012Y281811D02*
X302602D01*
X302012Y258189D02*
X302602Y258189D01*
X334658Y386650D02*
X334658Y380350D01*
X354343D02*
X354343Y386650D01*
X334658Y393342D02*
X354343D01*
X334658Y373657D02*
X354343D01*
X398953Y361872D02*
X403407Y366326D01*
X412872Y347953D02*
X417326Y352407D01*
X408140Y371059D02*
X422059Y357140D01*
X394220D02*
X408140Y343220D01*
X431350Y303343D02*
X437650Y303343D01*
X431350Y283658D02*
X437650Y283658D01*
X444343D02*
Y303343D01*
X424657Y283658D02*
Y303343D01*
X412733Y239187D02*
X417187Y234733D01*
X398813Y225267D02*
X403267Y220813D01*
X408000Y216081D02*
X421919Y230000D01*
X394081Y230000D02*
X408000Y243919D01*
X354343Y206650D02*
X354343Y200350D01*
X334658Y200350D02*
X334658Y206650D01*
X334658Y193658D02*
X354343D01*
X334658Y213342D02*
X354343D01*
X286233Y220813D02*
X290687Y225267D01*
X272313Y234733D02*
X276767Y239187D01*
X267581Y230000D02*
X281500Y216081D01*
X281500Y243919D02*
X295419Y230000D01*
X293957Y292657D02*
X310492D01*
X293957Y312343D02*
X301043D01*
X251350Y283658D02*
X257650Y283658D01*
X251350Y303343D02*
X257650Y303343D01*
X244657Y283658D02*
Y303343D01*
X264342Y283658D02*
Y303343D01*
X271674Y352407D02*
X276128Y347953D01*
X285593Y366326D02*
X290047Y361872D01*
X266941Y357140D02*
X280860Y371059D01*
Y343220D02*
X294780Y357140D01*
X353925Y242898D02*
X356976Y242898D01*
X349102Y255102D02*
X356878D01*
D36*
X310727Y281900D02*
X310727Y284498D01*
X305280D02*
X310727D01*
X305280Y281900D02*
Y284498D01*
Y272502D02*
Y275100D01*
Y272502D02*
X310727Y272502D01*
X310727Y275100D01*
X317727Y281900D02*
X317727Y284498D01*
X312280D02*
X317727D01*
X312280Y281900D02*
Y284498D01*
Y272502D02*
Y275100D01*
Y272502D02*
X317727D01*
X317727Y275100D02*
X317727Y272502D01*
X286998Y204085D02*
X289258Y209541D01*
X290765Y213178D02*
X323501Y199619D01*
X292220Y212576D02*
X307286Y248949D01*
X289258Y209541D02*
X321994Y195981D01*
X292454Y201825D02*
X294714Y207281D01*
X290765Y213178D02*
X305831Y249552D01*
X289258Y209541D02*
X290765Y213178D01*
X337814Y234174D02*
X338567Y235992D01*
X321994Y195981D02*
X323501Y199619D01*
X332648Y242279D02*
X339923Y239265D01*
X305831Y249552D02*
X307187Y252825D01*
X285492Y200448D02*
X318228Y186888D01*
X305831Y249552D02*
X307286Y248949D01*
X319734Y190525D02*
X321994Y195981D01*
X285492Y200448D02*
X286998Y204085D01*
X338567Y235992D02*
X339923Y239265D01*
X286998Y204085D02*
X319734Y190525D01*
X318228Y186888D02*
X319734Y190525D01*
X314278Y192785D02*
X316538Y198241D01*
X307187Y252825D02*
X314461Y249812D01*
X422054Y250675D02*
X431293Y246848D01*
X418227Y241436D02*
X427466Y237609D01*
X418227Y241436D02*
X433534Y278391D01*
X442773Y274564D01*
X427466Y237609D02*
X442773Y274564D01*
X257707Y340152D02*
X266946Y336325D01*
X261534Y349391D02*
X270773Y345564D01*
X255466Y308609D02*
X270773Y345564D01*
X246227Y312436D02*
X255466Y308609D01*
X246227Y312436D02*
X261534Y349391D01*
X286873Y373812D02*
X284045Y370984D01*
X285459Y369571D01*
X286401D01*
X288286Y371456D01*
Y372398D01*
X286873Y373812D01*
Y368157D02*
X287815Y367214D01*
X287344Y367686D01*
X290171Y370513D01*
X289229D01*
X310000Y264000D02*
X306001D01*
Y265999D01*
X306668Y266666D01*
X308001D01*
X308667Y265999D01*
Y264000D01*
Y265333D02*
X310000Y266666D01*
X306668Y267999D02*
X306001Y268665D01*
Y269998D01*
X306668Y270665D01*
X307334D01*
X308001Y269998D01*
Y269332D01*
Y269998D01*
X308667Y270665D01*
X309334D01*
X310000Y269998D01*
Y268665D01*
X309334Y267999D01*
X313668Y268666D02*
X313001Y267999D01*
Y266666D01*
X313668Y266000D01*
X316334D01*
X317000Y266666D01*
Y267999D01*
X316334Y268666D01*
X317000Y269999D02*
Y271332D01*
Y270665D01*
X313001D01*
X313668Y269999D01*
X302499Y356834D02*
Y358167D01*
Y357501D01*
X299166D01*
X298500Y358167D01*
Y358834D01*
X299166Y359500D01*
X298500Y355501D02*
Y354168D01*
Y354835D01*
X302499D01*
X301832Y355501D01*
X329166Y252499D02*
X327833D01*
X328499D01*
Y249166D01*
X327833Y248500D01*
X327166D01*
X326500Y249166D01*
X333165Y248500D02*
X330499D01*
X333165Y251166D01*
Y251832D01*
X332498Y252499D01*
X331165D01*
X330499Y251832D01*
X411017Y268440D02*
X409684D01*
X410350D01*
Y265108D01*
X409684Y264441D01*
X409017D01*
X408351Y265108D01*
X412350Y267774D02*
X413016Y268440D01*
X414349D01*
X415015Y267774D01*
Y267107D01*
X414349Y266441D01*
X413682D01*
X414349D01*
X415015Y265774D01*
Y265108D01*
X414349Y264441D01*
X413016D01*
X412350Y265108D01*
X261666Y311999D02*
X260333D01*
X260999D01*
Y308666D01*
X260333Y308000D01*
X259666D01*
X259000Y308666D01*
X264998Y308000D02*
Y311999D01*
X262999Y309999D01*
X265665D01*
X275166Y277499D02*
X273833D01*
X274499D01*
Y274166D01*
X273833Y273500D01*
X273166D01*
X272500Y274166D01*
X279165Y277499D02*
X276499D01*
Y275499D01*
X277832Y276166D01*
X278498D01*
X279165Y275499D01*
Y274166D01*
X278498Y273500D01*
X277165D01*
X276499Y274166D01*
X319000Y339500D02*
Y343499D01*
X320999D01*
X321666Y342832D01*
Y341499D01*
X320999Y340833D01*
X319000D01*
X320333D02*
X321666Y339500D01*
X322999D02*
X324332D01*
X323665D01*
Y343499D01*
X322999Y342832D01*
X340500Y312000D02*
Y315999D01*
X342499D01*
X343166Y315332D01*
Y313999D01*
X342499Y313333D01*
X340500D01*
X341833D02*
X343166Y312000D01*
X347165D02*
X344499D01*
X347165Y314666D01*
Y315332D01*
X346498Y315999D01*
X345165D01*
X344499Y315332D01*
X284168Y267166D02*
X283501Y266499D01*
Y265166D01*
X284168Y264500D01*
X284834D01*
X285501Y265166D01*
Y266499D01*
X286167Y267166D01*
X286834D01*
X287500Y266499D01*
Y265166D01*
X286834Y264500D01*
X283501Y268499D02*
X287500D01*
X286167Y269832D01*
X287500Y271164D01*
X283501D01*
X287500Y272497D02*
Y273830D01*
Y273164D01*
X283501D01*
X284168Y272497D01*
X328499Y386500D02*
X325166D01*
X324500Y385834D01*
Y384501D01*
X325166Y383834D01*
X328499D01*
X324500Y379836D02*
Y382501D01*
X327166Y379836D01*
X327832D01*
X328499Y380502D01*
Y381835D01*
X327832Y382501D01*
X397499Y372779D02*
X394166D01*
X393500Y372113D01*
Y370780D01*
X394166Y370113D01*
X397499D01*
X396832Y368780D02*
X397499Y368114D01*
Y366781D01*
X396832Y366115D01*
X396166D01*
X395499Y366781D01*
Y367448D01*
Y366781D01*
X394833Y366115D01*
X394166D01*
X393500Y366781D01*
Y368114D01*
X394166Y368780D01*
X436999Y315500D02*
X433666D01*
X433000Y314834D01*
Y313501D01*
X433666Y312834D01*
X436999D01*
X433000Y309502D02*
X436999D01*
X434999Y311501D01*
Y308836D01*
X421638Y247140D02*
X418306D01*
X417640Y246473D01*
Y245140D01*
X418306Y244474D01*
X421638D01*
Y240475D02*
Y243141D01*
X419639D01*
X420305Y241808D01*
Y241142D01*
X419639Y240475D01*
X418306D01*
X417640Y241142D01*
Y242474D01*
X418306Y243141D01*
X345499Y190000D02*
X342166D01*
X341500Y189333D01*
Y188001D01*
X342166Y187334D01*
X345499D01*
Y183335D02*
X344832Y184668D01*
X343499Y186001D01*
X342166D01*
X341500Y185335D01*
Y184002D01*
X342166Y183335D01*
X342833D01*
X343499Y184002D01*
Y186001D01*
X297638Y221360D02*
X294306D01*
X293640Y220694D01*
Y219361D01*
X294306Y218695D01*
X297638D01*
Y217362D02*
Y214696D01*
X296972D01*
X294306Y217362D01*
X293640D01*
X289000Y317999D02*
Y314666D01*
X289666Y314000D01*
X290999D01*
X291666Y314666D01*
Y317999D01*
X292999Y314000D02*
X294332D01*
X293665D01*
Y317999D01*
X292999Y317332D01*
X296331D02*
X296997Y317999D01*
X298330D01*
X298997Y317332D01*
Y314666D01*
X298330Y314000D01*
X296997D01*
X296331Y314666D01*
Y317332D01*
X242499Y299000D02*
X239166D01*
X238500Y298334D01*
Y297001D01*
X239166Y296334D01*
X242499D01*
X241832Y295001D02*
X242499Y294335D01*
Y293002D01*
X241832Y292336D01*
X241166D01*
X240499Y293002D01*
X239833Y292336D01*
X239166D01*
X238500Y293002D01*
Y294335D01*
X239166Y295001D01*
X239833D01*
X240499Y294335D01*
X241166Y295001D01*
X241832D01*
X240499Y294335D02*
Y293002D01*
X271219Y347500D02*
X267887D01*
X267221Y346834D01*
Y345501D01*
X267887Y344834D01*
X271219D01*
X267887Y343501D02*
X267221Y342835D01*
Y341502D01*
X267887Y340835D01*
X270553D01*
X271219Y341502D01*
Y342835D01*
X270553Y343501D01*
X269887D01*
X269220Y342835D01*
Y340835D01*
X357499Y263500D02*
X354166D01*
X353500Y262834D01*
Y261501D01*
X354166Y260834D01*
X357499D01*
X353500Y259501D02*
Y258168D01*
Y258835D01*
X357499D01*
X356832Y259501D01*
D37*
X289738Y384489D02*
D03*
D38*
X314445Y337657D02*
D03*
D39*
X418414Y243848D02*
D03*
X270586Y343152D02*
D03*
D40*
X270055Y304342D02*
D03*
D41*
X334067Y309464D02*
D03*
D42*
X353356Y373265D02*
D03*
X335643Y213735D02*
D03*
D43*
X407165Y343639D02*
D03*
X282475Y243501D02*
D03*
D44*
X424265Y284644D02*
D03*
X264735Y302357D02*
D03*
D45*
X394499Y230975D02*
D03*
X294361Y356165D02*
D03*
M02*
